<?xml version="1.0" encoding="UTF-8"?>
<svg width="74px" height="96px" viewBox="0 0 74 96" version="1.1" xmlns="http://www.w3.org/2000/svg" xmlns:xlink="http://www.w3.org/1999/xlink">
    <!-- Generator: Sketch 41.2 (35397) - http://www.bohemiancoding.com/sketch -->
    <title>gustav</title>
    <desc>Created with Sketch.</desc>
    <defs></defs>
    <g id="Page-1" stroke="none" stroke-width="1" fill="none" fill-rule="evenodd">
        <g id="gustav" transform="translate(1.000000, 0.000000)">
            <path d="M13.65,81 L13.65,95" id="Path-11" stroke="#222222" stroke-width="1.30000007"></path>
            <path d="M58.65,80 L58.65,95" id="Path-12" stroke="#222222" stroke-width="1.30000007"></path>
            <path d="M25,52 C25,52 21.0003667,60.002644 22,67 C22,67.0000001 28,65 28,65 L28,68 L34,70" id="Path-13" stroke="#222222" stroke-width="1.30000007"></path>
            <path d="M36,72 C36,72 45,64 45,60 L45,53" id="Path-14" stroke="#222222" stroke-width="1.30000007"></path>
            <path d="M28,54 L28,60 C28,64 37,70 37,70" id="Path-2" stroke="#222222" stroke-width="1.30000007"></path>
            <path d="M41,70 L46,68 L46,65 L52,68 C52,68 53,56 47,51" id="Path-15" stroke="#222222" stroke-width="1.30000007"></path>
            <path d="M22.5999756,58 C22.5999756,58 10,67 8,71 C6,75 5,76 0,90 C0,91 14,93 14,93" id="Path-16" stroke="#222222" stroke-width="1.30000007"></path>
            <path d="M51.5,59 C51.5,59 62.0012003,66.0018004 66,72 C68,75 72,90 72,90 C72,90 69,91 59,93" id="Path-17" stroke="#222222" stroke-width="1.30000007"></path>
            <path d="M72.0977782,93 C72.0977782,93 60.397766,91 59.397766,90 C58.397766,89 65.397766,72 65.397766,72" id="Path-18-Copy" stroke="#222222" stroke-width="1.30000007" fill="#FFFFFF" transform="translate(65.698883, 82.500000) scale(-1, 1) translate(-65.698883, -82.500000) "></path>
            <path d="M22,41 C22,47 27,57 36,57 C45,57 50,47 50,41" id="Path-19" stroke="#222222" stroke-width="1.30000007"></path>
            <path d="M34,42 C34,42 34,43.3 36,43.3 C38,43.3 38,42 38,42" id="Path-21" fill="#222222"></path>
            <rect id="Rectangle" fill="#222222" x="32" y="48" width="8" height="1.29999995"></rect>
            <path d="M22,44.16 C22,44.16 16.5,44.16 16.5,36.16 C16.5,28.16 22,34.16 22,34.16" id="Path-22" stroke="#222222" stroke-width="1.30000007"></path>
            <path d="M55.5,44.16 C55.5,44.16 50,44.16 50,36.16 C50,28.16 55.5,34.16 55.5,34.16" id="Path-22-Copy" stroke="#222222" stroke-width="1.30000007" transform="translate(52.750000, 38.080000) scale(-1, 1) translate(-52.750000, -38.080000) "></path>
            <path d="M52,37.6 C52,38.4 51,40 51,40 C51,40 53,38.4 53,37.6 C53,36.8 52,36 52,36 L52,37.6 Z" id="Path-23" fill="#222222"></path>
            <path d="M20,37.6 C20,38.4 19,40 19,40 C19,40 21,38.4 21,37.6 C21,36.8 20,36 20,36 L20,37.6 Z" id="Path-23-Copy" fill="#222222" transform="translate(20.000000, 38.000000) scale(-1, 1) translate(-20.000000, -38.000000) "></path>
            <path d="M22,34.0000006 C22,34.0000006 22,22.0079962 24,19.9999997 C26,17.9920031 26,15 26,15 C26,15 29.0000001,18 37,18 C44.9999999,18 50,18.0000003 50,22.9999997 L50,34 C50,34 51,33.0000006 52,32 L52,18 C52,7 32,1.99999985 24.9999999,12.9999999 C24.9999999,12.9999998 20,13.9999998 20,20.0000003 L20,32 L22,34.0000006 Z" id="Path-24" fill="#222222"></path>
            <path d="M2,91 L1,95" id="Path-20" stroke="#2F2F2F" stroke-width="1.30000007"></path>
            <path d="M71,90 L72,95" id="Path-18" stroke="#222222" stroke-width="1.30000007"></path>
            <path d="M26,29 C26,29 27,30.5 29.5,30.5 C32,30.5 33,29 33,29" id="Path-21-Copy" fill="#222222" transform="translate(29.500000, 29.750000) rotate(180.000000) translate(-29.500000, -29.750000) "></path>
            <path d="M39,29 C39,29 40,30.5 42.5,30.5 C45,30.5 46,29 46,29" id="Path-21-Copy-2" fill="#222222" transform="translate(42.500000, 29.750000) rotate(180.000000) translate(-42.500000, -29.750000) "></path>
            <path d="M29.3499999,36.4281154 C30.647869,36.4281154 31.6999998,35.3759846 31.6999998,34.0781155 C31.6999998,32.7802463 30.647869,32.9031155 29.3499999,32.9031155 C28.0521308,32.9031155 27,32.7802463 27,34.0781155 C27,35.3759846 28.0521308,36.4281154 29.3499999,36.4281154 Z" id="Oval-4" fill="#222222"></path>
            <path d="M42.6499877,36.4281154 C43.9478568,36.4281154 44.9999876,35.3759846 44.9999876,34.0781155 C44.9999876,32.7802463 43.9478568,32.9031155 42.6499877,32.9031155 C41.3521186,32.9031155 40.2999878,32.7802463 40.2999878,34.0781155 C40.2999878,35.3759846 41.3521186,36.4281154 42.6499877,36.4281154 Z" id="Oval-4-Copy" fill="#222222"></path>
            <path d="M24.1855384,24.1966994 C23.5203025,22.9493821 22.2729852,19.2905848 21.5245949,16.1307144 C20.7762045,12.970844 19.3625783,9.4783556 18.3647244,8.48050179 C16.7847892,6.73425761 16.1195534,6.56794864 12.2112926,6.98372106 C8.30303181,7.48264797 7.8041049,7.316339 8.05356835,6.06902173 C8.96826768,1.07975266 28.759035,-1.41488188 50.1297375,0.830289204 C59.1935764,1.82814302 62.4366013,2.82599683 63.6007641,5.07116792 C64.7649268,7.15003003 63.3513006,7.81526591 59.7756578,6.65110312 C57.3641777,5.81955828 56.5326329,5.90271276 54.8695432,6.98372106 C52.2917541,8.64681075 51.2939003,10.5593639 49.7971196,16.4633323 C47.3856396,26.358716 44.5583871,28.770196 39.735427,24.9450897 C38.5712642,24.0303904 36.5755566,23.282 35.3282393,23.282 C34.080922,23.282 32.4178323,24.0303904 31.5862875,24.9450897 C29.2579619,27.4397243 25.6823191,27.1071063 24.1855384,24.1966994 Z" id="node13" fill="#211D21" transform="translate(36.000000, 13.335113) scale(1, -1) translate(-36.000000, -13.335113) "></path>
            <path d="M29.2756186,50.0441807 C28.1286113,49.2248898 26.5446488,48.1325018 25.8345966,47.5863079 C24.2506341,46.3300617 22.9397686,46.2754423 20.8642315,47.3678303 C19.1164108,48.29636 18.6794556,47.6955466 20.0449405,46.3300617 C22.6120522,43.8175695 31.2419169,43.8721889 34.1367449,46.4393005 C35.0106553,47.2039721 35.2837523,47.2039721 37.30467,46.0569647 C41.7288411,43.5444725 49.9217506,44.1999053 51.4510937,47.1493527 C52.1611459,48.4055988 51.6149519,48.4602182 50.1402282,47.3678303 C48.3924075,46.0569647 46.808445,46.3846811 43.0397066,49.0064122 C39.4348264,51.464285 37.4685281,52.010479 36.3215208,50.8634717 C35.8845656,50.4265165 35.3929911,50.4265165 34.6283195,50.8634717 C32.8804988,51.7920014 31.5696333,51.5735238 29.2756186,50.0441807 Z" id="node17" fill="#211D21" transform="translate(35.500000, 47.958668) scale(1, -1) translate(-35.500000, -47.958668) "></path>
        </g>
    </g>
</svg>