<?xml version="1.0" encoding="UTF-8"?>
<svg width="73px" height="106px" viewBox="0 0 73 106" version="1.1" xmlns="http://www.w3.org/2000/svg" xmlns:xlink="http://www.w3.org/1999/xlink">
    <!-- Generator: Sketch 41.2 (35397) - http://www.bohemiancoding.com/sketch -->
    <title>hose</title>
    <desc>Created with Sketch.</desc>
    <defs></defs>
    <g id="Page-1" stroke="none" stroke-width="1" fill="none" fill-rule="evenodd">
        <g id="hose" transform="translate(1.073604, -1.000000)">
            <g id="alex" transform="translate(0.000000, 18.000000)">
                <path d="M12.65,74 L12.65,88" id="Path-11" stroke="#222222" stroke-width="1.30000007"></path>
                <path d="M57.65,73 L57.65,88" id="Path-12" stroke="#222222" stroke-width="1.30000007"></path>
                <path d="M45,53 C45,53 45,55 45,51 L45,46" id="Path-14" stroke="#222222" stroke-width="1.30000007"></path>
                <path d="M26,47 L26,53 C26,53 26,59 35.5,59 C44,59 45,53 45,53" id="Path-2" stroke="#222222" stroke-width="1.30000007"></path>
                <path d="M26,50 C26,50 7,60 5,64 C3,68 1,70 4.22772928e-13,84 L13,85" id="Path-16" stroke="#222222" stroke-width="1.30000007"></path>
                <path d="M45,50 C45,50 63.0012003,59.0018004 67,65 C69,68 71,83 71,83 L58,84" id="Path-17" stroke="#222222" stroke-width="1.30000007"></path>
                <path d="M21,34 C21,43 26,50 35,50 C44,50 49,43 49,34" id="Path-19" stroke="#222222" stroke-width="1.30000007"></path>
                <path d="M33,35 C33,35 33,36.3 35,36.3 C37,36.3 37,35 37,35" id="Path-21" fill="#222222"></path>
                <circle id="Oval-4" fill="#222222" cx="27.5" cy="27.5" r="1.5"></circle>
                <circle id="Oval-4-Copy" fill="#222222" cx="42.5" cy="27.5" r="1.5"></circle>
                <path d="M21,37.16 C21,37.16 16,37.16 16,29.16 C16,21.16 21,27.16 21,27.16" id="Path-22" stroke="#222222" stroke-width="1.30000007"></path>
                <path d="M54,37.16 C54,37.16 49,37.16 49,29.16 C49,21.16 54,27.16 54,27.16" id="Path-22-Copy" stroke="#222222" stroke-width="1.30000007" transform="translate(51.500000, 31.080000) scale(-1, 1) translate(-51.500000, -31.080000) "></path>
                <path d="M51,30.6 C51,31.4 50,33 50,33 C50,33 52,31.4 52,30.6 C52,29.8 51,29 51,29 L51,30.6 Z" id="Path-23" fill="#222222"></path>
                <path d="M19,30.6 C19,31.4 18,33 18,33 C18,33 20,31.4 20,30.6 C20,29.8 19,29 19,29 L19,30.6 Z" id="Path-23-Copy" fill="#222222" transform="translate(19.000000, 31.000000) scale(-1, 1) translate(-19.000000, -31.000000) "></path>
                <path d="M21,27.0000006 C21,27.0000006 21,18.9999996 22,14.9999997 C23,10.9999997 24,9 24,9 C24,9 30.0000001,13 38,13 C45.9999999,13 49.0000001,13.9999997 49,16.9999997 C48.9999999,19.9999997 49,27 49,27 C49,27 50,26.0000006 51,25 C51,25 52,16.0000003 52,14 C52,-2.00000007 29,-3.00000011 22.9999999,4.9999999 C22.9999999,4.99999981 18,6.99999988 18,14.0000003 C18,21.0000007 19,25 19,25 L21,27.0000006 Z" id="Path-24" fill="#222222"></path>
                <path d="M0.650000036,84 L0.650000036,89" id="Path-26" stroke="#222222" stroke-width="1.30000007"></path>
                <path d="M69.65,83 L69.65,88" id="Path-27" stroke="#222222" stroke-width="1.30000007"></path>
                <g id="glasses" transform="translate(19.000000, 23.000000)">
                    <path d="M14.4,1.71875 C14.4,1.71875 13.12,2.37194171e-10 8,-1.77635684e-14 C2.88,-2.37229698e-10 0.16,1.5625 0.16,1.5625 L0,3.59375 L1.44,4.53125 C1.44,4.53125 1.55351992,8.66052732 5.12,9.53125 C5.76,9.6875 9.59027908,10.2391215 11.04,9.53125 C11.36,9.375 14.56,7.65625 14.72,4.21875 C14.72,4.21875 15.2,3.59375 16,3.59375 L16,1.5625 C14.88,1.5625 14.4,1.71875 14.4,1.71875 Z M17.6,1.71875 C17.6,1.71875 18.88,2.37194171e-10 24,-1.77635684e-14 C29.12,-2.37229698e-10 31.84,1.5625 31.84,1.5625 L32,3.59375 L30.56,4.53125 C30.56,4.53125 30.4464801,8.66052732 26.88,9.53125 C26.24,9.6875 22.4097209,10.2391215 20.96,9.53125 C20.64,9.375 17.44,7.65625 17.28,4.21875 C17.28,4.21875 16.8,3.59375 16,3.59375 L16,1.5625 C17.12,1.5625 17.6,1.71875 17.6,1.71875 Z M23.8712578,0.9375 C21.4712578,0.9375 19.0712578,1.71875 18.5912578,2.96875 C18.1112578,4.21875 18.5912578,5.625 19.0712578,6.5625 C19.5512578,7.5 20.6712578,8.75 23.5512578,8.75 C26.4312578,8.75 28.8312578,7.5 28.6712578,4.53125 C28.5112578,1.5625 26.2712578,0.9375 23.8712578,0.9375 Z M8,0.9375 C10.4,0.9375 12.8,1.71875 13.28,2.96875 C13.76,4.21875 13.28,5.625 12.8,6.5625 C12.32,7.5 11.2,8.75 8.32,8.75 C5.44,8.75 3.04,7.5 3.2,4.53125 C3.36,1.5625 5.6,0.9375 8,0.9375 Z" id="Combined-Shape" fill="#222222"></path>
                    <ellipse id="Oval" fill="#FFFFFF" cx="1.84" cy="2.578125" rx="0.4" ry="0.390625"></ellipse>
                    <ellipse id="Oval-Copy" fill="#FFFFFF" cx="30.032002" cy="2.578125" rx="0.4" ry="0.390625"></ellipse>
                </g>
                <rect id="Rectangle-15" fill="#222222" x="31" y="41" width="8" height="1"></rect>
                <rect id="Rectangle-15-Copy-2" fill="#222222" x="33" y="44" width="4" height="1"></rect>
            </g>
            <path d="M26.7939489,63.6812352 C24.0597258,62.2490231 21,58.7335934 21,56.9758786 C21,56.3899736 21.5208044,56.5201747 22.8228154,57.4315824 C23.7993236,58.0825879 26.0778429,58.8637945 27.8355577,59.1241967 C31.1556858,59.5799006 33.3691045,60.4262077 34.1503111,61.5980176 C34.3456127,61.9886209 35.2570204,61.7282187 36.2986292,60.8819116 C37.2100369,60.100705 39.3583551,59.3194984 41.0509694,59.1241967 C45.3476057,58.5382918 45.9986112,58.2778896 47.5610244,56.7805769 C49.7093425,54.8275604 49.3838398,56.7805769 47.04022,59.9705039 C44.1757958,63.9416374 41.246271,65.1785479 34.8664171,65.1785479 C30.5697808,65.1785479 29.0073676,64.9181457 26.7939489,63.6812352 Z" id="node20" fill="#211D21" transform="translate(35.000000, 60.589274) scale(1, -1) translate(-35.000000, -60.589274) "></path>
            <path d="M31.189011,34.6850496 C29.1714286,33.7883463 24.9868132,29.0059287 24.5384615,26.913621 C24.1648352,25.3443903 22.6703297,13.2388958 22.6703297,12.0432914 C22.6703297,11.669665 17.8131868,11.4454892 11.8351648,11.4454892 C1.07472527,11.4454892 1,11.4454892 1,9.80153313 C1,7.48504961 3.31648352,4.12241225 6.15604396,2.40373093 C8.32307692,1.05867599 10.1912088,0.983950712 35.2241758,0.983950712 C60.1076923,0.983950712 62.0505495,1.05867599 64.0681319,2.40373093 C66.6835165,4.19713753 69,7.55977489 69,9.80153313 C69,11.4454892 68.9252747,11.4454892 58.2395604,11.4454892 L47.4791209,11.4454892 L47.0307692,13.5377969 C46.8065934,14.658676 46.432967,17.7224123 46.2087912,20.4125221 C45.5362637,27.2125221 44.7142857,29.4542804 41.8,32.2938408 C39.0351648,34.9092254 34.3274725,36.0301046 31.189011,34.6850496 Z" id="node14" fill="#211D21" transform="translate(35.000000, 18.120370) scale(1, -1) translate(-35.000000, -18.120370) "></path>
        </g>
    </g>
</svg>