<?xml version="1.0" encoding="UTF-8"?>
<svg width="900px" height="600px" viewBox="0 0 900 600" version="1.1" xmlns="http://www.w3.org/2000/svg" xmlns:xlink="http://www.w3.org/1999/xlink">
    <!-- Generator: Sketch 41.2 (35397) - http://www.bohemiancoding.com/sketch -->
    <title>Desktop Copy</title>
    <desc>Created with Sketch.</desc>
    <defs></defs>
    <g id="Page-1" stroke="none" stroke-width="1" fill="none" fill-rule="evenodd">
        <g id="Desktop-Copy">
            <g id="Group-3" transform="translate(269.000000, 189.000000)">
                <g id="Group-2" transform="translate(5.000000, 0.000000)">
                    <path d="M2.514,28.306 C1.10465962,26.9899934 0.3533338,25.1186788 0.26,22.692 C0.24133324,22.1879975 0.232,21.3666724 0.232,20.228 C0.232,19.0706609 0.24133324,18.2306693 0.26,17.708 C0.3533338,15.3186547 1.10932624,13.4566733 2.528,12.122 C3.94667376,10.7873267 5.93465388,10.12 8.492,10.12 C10.1533416,10.12 11.5999938,10.4046638 12.832,10.974 C14.0640062,11.5433362 15.0206633,12.3226617 15.702,13.312 C16.3833367,14.3013383 16.7426665,15.4119938 16.78,16.644 L16.78,16.7 C16.78,16.8493341 16.7193339,16.9753328 16.598,17.078 C16.4766661,17.1806672 16.3413341,17.232 16.192,17.232 L13.476,17.232 C13.2519989,17.232 13.0840006,17.1806672 12.972,17.078 C12.8599994,16.9753328 12.766667,16.7933346 12.692,16.532 C12.4119986,15.3746609 11.9266701,14.5580024 11.236,14.082 C10.5453299,13.6059976 9.63067236,13.368 8.492,13.368 C5.82265332,13.368 4.43200056,14.8613184 4.32,17.848 C4.30133324,18.3520025 4.292,19.1266614 4.292,20.172 C4.292,21.2173386 4.30133324,22.010664 4.32,22.552 C4.43200056,25.5386816 5.82265332,27.032 8.492,27.032 C9.6120056,27.032 10.5219965,26.7940024 11.222,26.318 C11.9220035,25.8419976 12.4119986,25.0253391 12.692,23.868 C12.766667,23.6066654 12.8599994,23.4246672 12.972,23.322 C13.0840006,23.2193328 13.2519989,23.168 13.476,23.168 L16.192,23.168 C16.3600008,23.168 16.5046661,23.2239994 16.626,23.336 C16.7473339,23.4480006 16.7986668,23.5879992 16.78,23.756 C16.7426665,24.9880062 16.3833367,26.0986617 15.702,27.088 C15.0206633,28.0773383 14.0640062,28.8566638 12.832,29.426 C11.5999938,29.9953362 10.1533416,30.28 8.492,30.28 C5.91598712,30.28 3.92334038,29.6220066 2.514,28.306 Z M21.148,28.6 C19.9533274,27.4799944 19.3093338,25.9306766 19.216,23.952 L19.188,22.72 L19.216,21.488 C19.3093338,19.5279902 19.9626606,17.983339 21.176,16.854 C22.3893394,15.724661 24.0786558,15.16 26.244,15.16 C28.3906774,15.16 30.0706606,15.724661 31.284,16.854 C32.4973394,17.983339 33.1506662,19.5279902 33.244,21.488 C33.2626668,21.7120011 33.272,22.1226637 33.272,22.72 C33.272,23.3173363 33.2626668,23.7279989 33.244,23.952 C33.1506662,25.9306766 32.5066726,27.4799944 31.312,28.6 C30.1173274,29.7200056 28.4280109,30.28 26.244,30.28 C24.0413223,30.28 22.3426726,29.7200056 21.148,28.6 Z M28.526,26.528 C29.0580027,25.9119969 29.3426665,25.0066726 29.38,23.812 C29.3986668,23.6253324 29.408,23.261336 29.408,22.72 C29.408,22.178664 29.3986668,21.8146676 29.38,21.628 C29.3426665,20.4333274 29.053336,19.5233365 28.512,18.898 C27.970664,18.2726635 27.2146715,17.96 26.244,17.96 C25.2546617,17.96 24.489336,18.2726635 23.948,18.898 C23.406664,19.5233365 23.1173335,20.4333274 23.08,21.628 L23.052,22.72 L23.08,23.812 C23.1173335,25.0066726 23.406664,25.9119969 23.948,26.528 C24.489336,27.1440031 25.2546617,27.452 26.244,27.452 C27.2333383,27.452 27.9939973,27.1440031 28.526,26.528 Z M37.766,28.572 C36.5433272,27.4333276 35.894667,25.8560101 35.82,23.84 L35.792,22.72 L35.82,21.6 C35.894667,19.5839899 36.5433272,18.0066724 37.766,16.868 C38.9886728,15.7293276 40.6266564,15.16 42.68,15.16 C44.154674,15.16 45.4006616,15.4213307 46.418,15.944 C47.4353384,16.4666693 48.1913309,17.1059962 48.686,17.862 C49.1806691,18.6180038 49.4466665,19.3413299 49.484,20.032 C49.5026668,20.2186676 49.4420007,20.3773327 49.302,20.508 C49.1619993,20.6386673 48.9986676,20.704 48.812,20.704 L46.32,20.704 C46.1146656,20.704 45.9653338,20.6620004 45.872,20.578 C45.7786662,20.4939996 45.6853338,20.3400011 45.592,20.116 C45.3119986,19.4066631 44.9433356,18.8933349 44.486,18.576 C44.0286644,18.2586651 43.4453369,18.1 42.736,18.1 C41.7839952,18.1 41.0420027,18.3986637 40.51,18.996 C39.9779973,19.5933363 39.6933335,20.5079938 39.656,21.74 L39.628,22.776 L39.656,23.7 C39.7680006,26.1266788 40.794657,27.34 42.736,27.34 C43.4640036,27.34 44.0519978,27.1860015 44.5,26.878 C44.9480022,26.5699985 45.3119986,26.0520036 45.592,25.324 C45.666667,25.1186656 45.7553328,24.9693338 45.858,24.876 C45.9606672,24.7826662 46.1146656,24.736 46.32,24.736 L48.812,24.736 C48.9986676,24.736 49.1619993,24.8013327 49.302,24.932 C49.4420007,25.0626673 49.5026668,25.2213324 49.484,25.408 C49.4466665,26.0613366 49.1853358,26.7659962 48.7,27.522 C48.2146642,28.2780038 47.468005,28.926664 46.46,29.468 C45.451995,30.009336 44.1920076,30.28 42.68,30.28 C40.6266564,30.28 38.9886728,29.7106724 37.766,28.572 Z M56.344,29.804 C56.2133327,29.6733327 56.148,29.5146676 56.148,29.328 L56.148,18.436 L51.612,18.436 C51.4253324,18.436 51.2666673,18.3706673 51.136,18.24 C51.0053327,18.1093327 50.94,17.9506676 50.94,17.764 L50.94,16.112 C50.94,15.9066656 51.0053327,15.7433339 51.136,15.622 C51.2666673,15.5006661 51.4253324,15.44 51.612,15.44 L64.352,15.44 C64.5573344,15.44 64.7206661,15.5006661 64.842,15.622 C64.9633339,15.7433339 65.024,15.9066656 65.024,16.112 L65.024,17.764 C65.024,17.9506676 64.9633339,18.1093327 64.842,18.24 C64.7206661,18.3706673 64.5573344,18.436 64.352,18.436 L59.816,18.436 L59.816,29.328 C59.816,29.5146676 59.7553339,29.6733327 59.634,29.804 C59.5126661,29.9346673 59.3493344,30 59.144,30 L56.82,30 C56.6333324,30 56.4746673,29.9346673 56.344,29.804 Z M68.636,28.6 C67.4413274,27.4799944 66.7973338,25.9306766 66.704,23.952 L66.676,22.72 L66.704,21.488 C66.7973338,19.5279902 67.4506606,17.983339 68.664,16.854 C69.8773394,15.724661 71.5666558,15.16 73.732,15.16 C75.8786774,15.16 77.5586606,15.724661 78.772,16.854 C79.9853394,17.983339 80.6386662,19.5279902 80.732,21.488 C80.7506668,21.7120011 80.76,22.1226637 80.76,22.72 C80.76,23.3173363 80.7506668,23.7279989 80.732,23.952 C80.6386662,25.9306766 79.9946726,27.4799944 78.8,28.6 C77.6053274,29.7200056 75.9160109,30.28 73.732,30.28 C71.5293223,30.28 69.8306726,29.7200056 68.636,28.6 Z M76.014,26.528 C76.5460027,25.9119969 76.8306665,25.0066726 76.868,23.812 C76.8866668,23.6253324 76.896,23.261336 76.896,22.72 C76.896,22.178664 76.8866668,21.8146676 76.868,21.628 C76.8306665,20.4333274 76.541336,19.5233365 76,18.898 C75.458664,18.2726635 74.7026715,17.96 73.732,17.96 C72.7426617,17.96 71.977336,18.2726635 71.436,18.898 C70.894664,19.5233365 70.6053335,20.4333274 70.568,21.628 L70.54,22.72 L70.568,23.812 C70.6053335,25.0066726 70.894664,25.9119969 71.436,26.528 C71.977336,27.1440031 72.7426617,27.452 73.732,27.452 C74.7213383,27.452 75.4819973,27.1440031 76.014,26.528 Z M96.034,15.622 C96.1553339,15.7433339 96.216,15.9066656 96.216,16.112 L96.216,29.328 C96.216,29.5146676 96.1553339,29.6733327 96.034,29.804 C95.9126661,29.9346673 95.7493344,30 95.544,30 L93.108,30 C92.9213324,30 92.7626673,29.9346673 92.632,29.804 C92.5013327,29.6733327 92.436,29.5146676 92.436,29.328 L92.436,25.072 L89.944,25.072 L87.228,29.58 C87.0599992,29.8600014 86.8266682,30 86.528,30 L84.12,30 C83.9706659,30 83.8400006,29.9440006 83.728,29.832 C83.6159994,29.7199994 83.56,29.5893341 83.56,29.44 C83.56,29.2719992 83.6159994,29.1226673 83.728,28.992 L86.668,24.4 C85.7906623,24.0266648 85.1280022,23.4760036 84.68,22.748 C84.2319978,22.0199964 84.008,21.1613383 84.008,20.172 C84.008,18.6039922 84.4979951,17.4233373 85.478,16.63 C86.4580049,15.8366627 87.8906572,15.44 89.776,15.44 L95.544,15.44 C95.7493344,15.44 95.9126661,15.5006661 96.034,15.622 Z M92.492,18.128 L89.86,18.128 C88.9826623,18.128 88.348002,18.2819985 87.956,18.59 C87.563998,18.8980015 87.368,19.4253296 87.368,20.172 C87.368,20.8626701 87.563998,21.403998 87.956,21.796 C88.348002,22.188002 88.9266628,22.384 89.692,22.384 L92.492,22.384 L92.492,18.128 Z M100.192,29.804 C100.061333,29.6733327 99.996,29.5146676 99.996,29.328 L99.996,16.112 C99.996,15.9066656 100.061333,15.7433339 100.192,15.622 C100.322667,15.5006661 100.481332,15.44 100.668,15.44 L103.048,15.44 C103.234668,15.44 103.393333,15.5053327 103.524,15.636 C103.654667,15.7666673 103.72,15.9253324 103.72,16.112 L103.72,21.096 L109.964,21.096 L109.964,16.112 C109.964,15.9253324 110.029333,15.7666673 110.16,15.636 C110.290667,15.5053327 110.449332,15.44 110.636,15.44 L113.016,15.44 C113.221334,15.44 113.384666,15.5006661 113.506,15.622 C113.627334,15.7433339 113.688,15.9066656 113.688,16.112 L113.688,29.328 C113.688,29.5146676 113.627334,29.6733327 113.506,29.804 C113.384666,29.9346673 113.221334,30 113.016,30 L110.636,30 C110.449332,30 110.290667,29.9346673 110.16,29.804 C110.029333,29.6733327 109.964,29.5146676 109.964,29.328 L109.964,24.092 L103.72,24.092 L103.72,29.328 C103.72,29.5146676 103.654667,29.6733327 103.524,29.804 C103.393333,29.9346673 103.234668,30 103.048,30 L100.668,30 C100.481332,30 100.322667,29.9346673 100.192,29.804 Z M131.216,15.622 C131.346667,15.7433339 131.412,15.8879992 131.412,16.056 L131.412,29.328 C131.412,29.5146676 131.351334,29.6733327 131.23,29.804 C131.108666,29.9346673 130.945334,30 130.74,30 L128.36,30 C128.173332,30 128.014667,29.9346673 127.884,29.804 C127.753333,29.6733327 127.688,29.5146676 127.688,29.328 L127.688,20.396 L121.052,29.552 C120.846666,29.8506682 120.585335,30 120.268,30 L118.112,30 C117.925332,30 117.771334,29.9393339 117.65,29.818 C117.528666,29.6966661 117.468,29.5426676 117.468,29.356 L117.468,16.112 C117.468,15.9066656 117.533333,15.7433339 117.664,15.622 C117.794667,15.5006661 117.953332,15.44 118.14,15.44 L120.52,15.44 C120.706668,15.44 120.865333,15.5053327 120.996,15.636 C121.126667,15.7666673 121.192,15.9253324 121.192,16.112 L121.192,25.044 L127.828,15.888 C128.052001,15.5893318 128.313332,15.44 128.612,15.44 L130.768,15.44 C130.936001,15.44 131.085333,15.5006661 131.216,15.622 Z M136.27,28.488 C135.047327,27.2933274 134.398667,25.5946777 134.324,23.392 L134.296,22.692 C134.296,20.358655 134.907327,18.5200067 136.13,17.176 C137.352673,15.8319933 139.046656,15.16 141.212,15.16 C143.433344,15.16 145.145994,15.8319933 146.35,17.176 C147.554006,18.5200067 148.156,20.3119888 148.156,22.552 L148.156,23.14 C148.156,23.3266676 148.090667,23.4853327 147.96,23.616 C147.829333,23.7466673 147.661334,23.812 147.456,23.812 L138.16,23.812 L138.16,24.036 C138.197334,25.0813386 138.481997,25.9446633 139.014,26.626 C139.546003,27.3073367 140.278662,27.648 141.212,27.648 C142.276005,27.648 143.143997,27.218671 143.816,26.36 C143.984001,26.1546656 144.114666,26.0286669 144.208,25.982 C144.301334,25.9353331 144.459999,25.912 144.684,25.912 L147.148,25.912 C147.316001,25.912 147.460666,25.9586662 147.582,26.052 C147.703334,26.1453338 147.764,26.2759992 147.764,26.444 C147.764,26.8920022 147.498003,27.4193303 146.966,28.026 C146.433997,28.6326697 145.673338,29.1599978 144.684,29.608 C143.694662,30.0560022 142.546673,30.28 141.24,30.28 C139.149323,30.28 137.492673,29.6826726 136.27,28.488 Z M144.292,21.432 L144.292,21.376 C144.292,20.2746612 144.016669,19.39267 143.466,18.73 C142.915331,18.06733 142.164005,17.736 141.212,17.736 C140.259995,17.736 139.513336,18.06733 138.972,18.73 C138.430664,19.39267 138.16,20.2746612 138.16,21.376 L138.16,21.432 L144.292,21.432 Z M159.678,28.74 C159.556666,28.6279994 159.505333,28.4880008 159.524,28.32 L160,25.296 L157.62,25.296 C157.433332,25.296 157.279334,25.2353339 157.158,25.114 C157.036666,24.9926661 156.976,24.8386676 156.976,24.652 L156.976,23.028 C156.976,22.8413324 157.036666,22.6873339 157.158,22.566 C157.279334,22.4446661 157.433332,22.384 157.62,22.384 L160.42,22.384 L161.036,18.184 L158.348,18.184 C158.161332,18.184 158.007334,18.1233339 157.886,18.002 C157.764666,17.8806661 157.704,17.7266676 157.704,17.54 L157.704,15.916 C157.704,15.7293324 157.764666,15.5753339 157.886,15.454 C158.007334,15.3326661 158.161332,15.272 158.348,15.272 L161.484,15.272 L161.932,12.248 C161.969334,12.0799992 162.043999,11.9400006 162.156,11.828 C162.268001,11.7159994 162.407999,11.66 162.576,11.66 L164.228,11.66 C164.396001,11.66 164.535999,11.7159994 164.648,11.828 C164.760001,11.9400006 164.816,12.0799992 164.816,12.248 L164.368,15.272 L167.84,15.272 L168.288,12.248 C168.325334,12.0799992 168.399999,11.9400006 168.512,11.828 C168.624001,11.7159994 168.763999,11.66 168.932,11.66 L170.584,11.66 C170.752001,11.66 170.891999,11.7159994 171.004,11.828 C171.116001,11.9400006 171.172,12.0799992 171.172,12.248 L170.724,15.272 L173.048,15.272 C173.234668,15.272 173.388666,15.3326661 173.51,15.454 C173.631334,15.5753339 173.692,15.7293324 173.692,15.916 L173.692,17.54 C173.692,17.7266676 173.631334,17.8806661 173.51,18.002 C173.388666,18.1233339 173.234668,18.184 173.048,18.184 L170.304,18.184 L169.66,22.384 L172.32,22.384 C172.506668,22.384 172.660666,22.4446661 172.782,22.566 C172.903334,22.6873339 172.964,22.8413324 172.964,23.028 L172.964,24.652 C172.964,24.8386676 172.903334,24.9926661 172.782,25.114 C172.660666,25.2353339 172.506668,25.296 172.32,25.296 L169.24,25.296 L168.792,28.32 C168.754666,28.4880008 168.680001,28.6279994 168.568,28.74 C168.455999,28.8520006 168.306668,28.908 168.12,28.908 L166.468,28.908 C166.299999,28.908 166.155334,28.8520006 166.034,28.74 C165.912666,28.6279994 165.861333,28.4880008 165.88,28.32 L166.356,25.296 L162.884,25.296 L162.436,28.32 C162.398666,28.4880008 162.324001,28.6279994 162.212,28.74 C162.099999,28.8520006 161.950668,28.908 161.764,28.908 L160.112,28.908 C159.943999,28.908 159.799334,28.8520006 159.678,28.74 Z M163.304,22.384 L166.776,22.384 L167.392,18.184 L163.948,18.184 L163.304,22.384 Z M182.288,29.804 C182.157333,29.6733327 182.092,29.5146676 182.092,29.328 L182.092,14.88 L177.864,18.128 C177.751999,18.2213338 177.612001,18.268 177.444,18.268 C177.219999,18.268 177.042667,18.1746676 176.912,17.988 L175.708,16.42 C175.614666,16.2893327 175.568,16.1586673 175.568,16.028 C175.568,15.8039989 175.670666,15.6173341 175.876,15.468 L182.148,10.596 C182.353334,10.4653327 182.586665,10.4 182.848,10.4 L185.368,10.4 C185.554668,10.4 185.713333,10.4653327 185.844,10.596 C185.974667,10.7266673 186.04,10.8853324 186.04,11.072 L186.04,29.328 C186.04,29.5146676 185.974667,29.6733327 185.844,29.804 C185.713333,29.9346673 185.554668,30 185.368,30 L182.764,30 C182.577332,30 182.418667,29.9346673 182.288,29.804 Z" id="Состояние-#1" fill="#030303"></path>
                    <g id="Group" transform="translate(275.000000, 0.000000)">
                        <rect id="Rectangle-2" fill="#518BF6" x="0" y="0" width="95" height="38" rx="19"></rect>
                        <path d="M18.44,28.804 C18.3093327,28.6733327 18.244,28.5146676 18.244,28.328 L18.244,10.1 C18.244,9.89466564 18.3046661,9.72666732 18.426,9.596 C18.5473339,9.46533268 18.7106656,9.4 18.916,9.4 L25.748,9.4 C31.2546942,9.4 34.0639994,11.9386413 34.176,17.016 C34.2133335,18.0986721 34.232,18.8266648 34.232,19.2 C34.232,19.5546684 34.2133335,20.2733279 34.176,21.356 C34.101333,23.9693464 33.3966733,25.8966605 32.062,27.138 C30.7273267,28.3793395 28.6693472,29 25.888,29 L18.916,29 C18.7293324,29 18.5706673,28.9346673 18.44,28.804 Z M25.748,25.752 C27.2973411,25.752 28.4173299,25.4066701 29.108,24.716 C29.7986701,24.0253299 30.1626665,22.8773414 30.2,21.272 C30.2373335,20.1519944 30.256,19.4520014 30.256,19.172 C30.256,18.8733318 30.2373335,18.1826721 30.2,17.1 C30.1626665,15.5693257 29.7800036,14.4446703 29.052,13.726 C28.3239964,13.0073297 27.1760078,12.648 25.608,12.648 L22.192,12.648 L22.192,25.752 L25.748,25.752 Z M39.524,27.348 C38.1053262,26.0599936 37.358667,24.1466794 37.284,21.608 C37.2653332,21.066664 37.256,20.2733386 37.256,19.228 C37.256,18.1639947 37.2653332,17.361336 37.284,16.82 C37.358667,14.3373209 38.1239927,12.43334 39.58,11.108 C41.0360073,9.78266004 43.0053209,9.12 45.488,9.12 C47.9520123,9.12 49.9166593,9.78266004 51.382,11.108 C52.8473407,12.43334 53.617333,14.3373209 53.692,16.82 C53.7293335,17.9026721 53.748,18.7053307 53.748,19.228 C53.748,19.7320025 53.7293335,20.5253279 53.692,21.608 C53.617333,24.1466794 52.8660071,26.0599936 51.438,27.348 C50.0099929,28.6360064 48.0266794,29.28 45.488,29.28 C42.9306539,29.28 40.9426738,28.6360064 39.524,27.348 Z M48.456,24.912 C49.1840036,24.1653296 49.5759997,23.0173411 49.632,21.468 C49.6693335,20.3479944 49.688,19.592002 49.688,19.2 C49.688,18.7706645 49.6693335,18.0146721 49.632,16.932 C49.5759997,15.4013257 49.1746704,14.2580038 48.428,13.502 C47.6813296,12.7459962 46.7013394,12.368 45.488,12.368 C44.2559938,12.368 43.2666704,12.7459962 42.52,13.502 C41.7733296,14.2580038 41.3813335,15.4013257 41.344,16.932 C41.3253332,17.473336 41.316,18.2293285 41.316,19.2 C41.316,20.1520048 41.3253332,20.9079972 41.344,21.468 C41.3813335,22.9986743 41.768663,24.1419962 42.506,24.898 C43.243337,25.6540038 44.2373271,26.032 45.488,26.032 C46.7386729,26.032 47.7279964,25.6586704 48.456,24.912 Z M57.584,28.804 C57.4533327,28.6733327 57.388,28.5146676 57.388,28.328 L57.388,10.1 C57.388,9.89466564 57.4486661,9.72666732 57.57,9.596 C57.6913339,9.46533268 57.8546656,9.4 58.06,9.4 L60.328,9.4 C60.6826684,9.4 60.9626656,9.57733156 61.168,9.932 L66.572,19.956 L71.976,9.932 C72.1813344,9.57733156 72.4613316,9.4 72.816,9.4 L75.056,9.4 C75.2613344,9.4 75.4293327,9.46533268 75.56,9.596 C75.6906673,9.72666732 75.756,9.89466564 75.756,10.1 L75.756,28.328 C75.756,28.5333344 75.6906673,28.6966661 75.56,28.818 C75.4293327,28.9393339 75.2613344,29 75.056,29 L72.648,29 C72.4613324,29 72.3026673,28.9346673 72.172,28.804 C72.0413327,28.6733327 71.976,28.5146676 71.976,28.328 L71.976,16.288 L68.084,23.68 C67.8786656,24.0906687 67.5706687,24.296 67.16,24.296 L65.984,24.296 C65.591998,24.296 65.2746679,24.0906687 65.032,23.68 L61.14,16.288 L61.14,28.328 C61.14,28.5146676 61.0793339,28.6733327 60.958,28.804 C60.8366661,28.9346673 60.6733344,29 60.468,29 L58.06,29 C57.8733324,29 57.7146673,28.9346673 57.584,28.804 Z" id="DOM" fill="#FFFFFF"></path>
                    </g>
                    <path d="M212.5,20 L250.5,20" id="Line" stroke="#000000" stroke-width="2" fill="#000000"></path>
                    <path id="Line-decoration-1" d="M212.5,17 L212.5,23" stroke="#000000" stroke-width="2" fill="#000000"></path>
                    <path id="Line-decoration-2" d="M250.5,20 L239.7,17 L239.7,23 L250.5,20 Z" stroke="#000000" stroke-width="2" fill="#000000"></path>
                </g>
                <g id="Group-2" transform="translate(0.000000, 126.000000)">
                    <path d="M2.838,28.306 C1.42865962,26.9899934 0.6773338,25.1186788 0.584,22.692 C0.56533324,22.1879975 0.556,21.3666724 0.556,20.228 C0.556,19.0706609 0.56533324,18.2306693 0.584,17.708 C0.6773338,15.3186547 1.43332624,13.4566733 2.852,12.122 C4.27067376,10.7873267 6.25865388,10.12 8.816,10.12 C10.4773416,10.12 11.9239938,10.4046638 13.156,10.974 C14.3880062,11.5433362 15.3446633,12.3226617 16.026,13.312 C16.7073367,14.3013383 17.0666665,15.4119938 17.104,16.644 L17.104,16.7 C17.104,16.8493341 17.0433339,16.9753328 16.922,17.078 C16.8006661,17.1806672 16.6653341,17.232 16.516,17.232 L13.8,17.232 C13.5759989,17.232 13.4080006,17.1806672 13.296,17.078 C13.1839994,16.9753328 13.090667,16.7933346 13.016,16.532 C12.7359986,15.3746609 12.2506701,14.5580024 11.56,14.082 C10.8693299,13.6059976 9.95467236,13.368 8.816,13.368 C6.14665332,13.368 4.75600056,14.8613184 4.644,17.848 C4.62533324,18.3520025 4.616,19.1266614 4.616,20.172 C4.616,21.2173386 4.62533324,22.010664 4.644,22.552 C4.75600056,25.5386816 6.14665332,27.032 8.816,27.032 C9.9360056,27.032 10.8459965,26.7940024 11.546,26.318 C12.2460035,25.8419976 12.7359986,25.0253391 13.016,23.868 C13.090667,23.6066654 13.1839994,23.4246672 13.296,23.322 C13.4080006,23.2193328 13.5759989,23.168 13.8,23.168 L16.516,23.168 C16.6840008,23.168 16.8286661,23.2239994 16.95,23.336 C17.0713339,23.4480006 17.1226668,23.5879992 17.104,23.756 C17.0666665,24.9880062 16.7073367,26.0986617 16.026,27.088 C15.3446633,28.0773383 14.3880062,28.8566638 13.156,29.426 C11.9239938,29.9953362 10.4773416,30.28 8.816,30.28 C6.23998712,30.28 4.24734038,29.6220066 2.838,28.306 Z M21.472,28.6 C20.2773274,27.4799944 19.6333338,25.9306766 19.54,23.952 L19.512,22.72 L19.54,21.488 C19.6333338,19.5279902 20.2866606,17.983339 21.5,16.854 C22.7133394,15.724661 24.4026558,15.16 26.568,15.16 C28.7146774,15.16 30.3946606,15.724661 31.608,16.854 C32.8213394,17.983339 33.4746662,19.5279902 33.568,21.488 C33.5866668,21.7120011 33.596,22.1226637 33.596,22.72 C33.596,23.3173363 33.5866668,23.7279989 33.568,23.952 C33.4746662,25.9306766 32.8306726,27.4799944 31.636,28.6 C30.4413274,29.7200056 28.7520109,30.28 26.568,30.28 C24.3653223,30.28 22.6666726,29.7200056 21.472,28.6 Z M28.85,26.528 C29.3820027,25.9119969 29.6666665,25.0066726 29.704,23.812 C29.7226668,23.6253324 29.732,23.261336 29.732,22.72 C29.732,22.178664 29.7226668,21.8146676 29.704,21.628 C29.6666665,20.4333274 29.377336,19.5233365 28.836,18.898 C28.294664,18.2726635 27.5386715,17.96 26.568,17.96 C25.5786617,17.96 24.813336,18.2726635 24.272,18.898 C23.730664,19.5233365 23.4413335,20.4333274 23.404,21.628 L23.376,22.72 L23.404,23.812 C23.4413335,25.0066726 23.730664,25.9119969 24.272,26.528 C24.813336,27.1440031 25.5786617,27.452 26.568,27.452 C27.5573383,27.452 28.3179973,27.1440031 28.85,26.528 Z M38.09,28.572 C36.8673272,27.4333276 36.218667,25.8560101 36.144,23.84 L36.116,22.72 L36.144,21.6 C36.218667,19.5839899 36.8673272,18.0066724 38.09,16.868 C39.3126728,15.7293276 40.9506564,15.16 43.004,15.16 C44.478674,15.16 45.7246616,15.4213307 46.742,15.944 C47.7593384,16.4666693 48.5153309,17.1059962 49.01,17.862 C49.5046691,18.6180038 49.7706665,19.3413299 49.808,20.032 C49.8266668,20.2186676 49.7660007,20.3773327 49.626,20.508 C49.4859993,20.6386673 49.3226676,20.704 49.136,20.704 L46.644,20.704 C46.4386656,20.704 46.2893338,20.6620004 46.196,20.578 C46.1026662,20.4939996 46.0093338,20.3400011 45.916,20.116 C45.6359986,19.4066631 45.2673356,18.8933349 44.81,18.576 C44.3526644,18.2586651 43.7693369,18.1 43.06,18.1 C42.1079952,18.1 41.3660027,18.3986637 40.834,18.996 C40.3019973,19.5933363 40.0173335,20.5079938 39.98,21.74 L39.952,22.776 L39.98,23.7 C40.0920006,26.1266788 41.118657,27.34 43.06,27.34 C43.7880036,27.34 44.3759978,27.1860015 44.824,26.878 C45.2720022,26.5699985 45.6359986,26.0520036 45.916,25.324 C45.990667,25.1186656 46.0793328,24.9693338 46.182,24.876 C46.2846672,24.7826662 46.4386656,24.736 46.644,24.736 L49.136,24.736 C49.3226676,24.736 49.4859993,24.8013327 49.626,24.932 C49.7660007,25.0626673 49.8266668,25.2213324 49.808,25.408 C49.7706665,26.0613366 49.5093358,26.7659962 49.024,27.522 C48.5386642,28.2780038 47.792005,28.926664 46.784,29.468 C45.775995,30.009336 44.5160076,30.28 43.004,30.28 C40.9506564,30.28 39.3126728,29.7106724 38.09,28.572 Z M56.668,29.804 C56.5373327,29.6733327 56.472,29.5146676 56.472,29.328 L56.472,18.436 L51.936,18.436 C51.7493324,18.436 51.5906673,18.3706673 51.46,18.24 C51.3293327,18.1093327 51.264,17.9506676 51.264,17.764 L51.264,16.112 C51.264,15.9066656 51.3293327,15.7433339 51.46,15.622 C51.5906673,15.5006661 51.7493324,15.44 51.936,15.44 L64.676,15.44 C64.8813344,15.44 65.0446661,15.5006661 65.166,15.622 C65.2873339,15.7433339 65.348,15.9066656 65.348,16.112 L65.348,17.764 C65.348,17.9506676 65.2873339,18.1093327 65.166,18.24 C65.0446661,18.3706673 64.8813344,18.436 64.676,18.436 L60.14,18.436 L60.14,29.328 C60.14,29.5146676 60.0793339,29.6733327 59.958,29.804 C59.8366661,29.9346673 59.6733344,30 59.468,30 L57.144,30 C56.9573324,30 56.7986673,29.9346673 56.668,29.804 Z M68.96,28.6 C67.7653274,27.4799944 67.1213338,25.9306766 67.028,23.952 L67,22.72 L67.028,21.488 C67.1213338,19.5279902 67.7746606,17.983339 68.988,16.854 C70.2013394,15.724661 71.8906558,15.16 74.056,15.16 C76.2026774,15.16 77.8826606,15.724661 79.096,16.854 C80.3093394,17.983339 80.9626662,19.5279902 81.056,21.488 C81.0746668,21.7120011 81.084,22.1226637 81.084,22.72 C81.084,23.3173363 81.0746668,23.7279989 81.056,23.952 C80.9626662,25.9306766 80.3186726,27.4799944 79.124,28.6 C77.9293274,29.7200056 76.2400109,30.28 74.056,30.28 C71.8533223,30.28 70.1546726,29.7200056 68.96,28.6 Z M76.338,26.528 C76.8700027,25.9119969 77.1546665,25.0066726 77.192,23.812 C77.2106668,23.6253324 77.22,23.261336 77.22,22.72 C77.22,22.178664 77.2106668,21.8146676 77.192,21.628 C77.1546665,20.4333274 76.865336,19.5233365 76.324,18.898 C75.782664,18.2726635 75.0266715,17.96 74.056,17.96 C73.0666617,17.96 72.301336,18.2726635 71.76,18.898 C71.218664,19.5233365 70.9293335,20.4333274 70.892,21.628 L70.864,22.72 L70.892,23.812 C70.9293335,25.0066726 71.218664,25.9119969 71.76,26.528 C72.301336,27.1440031 73.0666617,27.452 74.056,27.452 C75.0453383,27.452 75.8059973,27.1440031 76.338,26.528 Z M96.358,15.622 C96.4793339,15.7433339 96.54,15.9066656 96.54,16.112 L96.54,29.328 C96.54,29.5146676 96.4793339,29.6733327 96.358,29.804 C96.2366661,29.9346673 96.0733344,30 95.868,30 L93.432,30 C93.2453324,30 93.0866673,29.9346673 92.956,29.804 C92.8253327,29.6733327 92.76,29.5146676 92.76,29.328 L92.76,25.072 L90.268,25.072 L87.552,29.58 C87.3839992,29.8600014 87.1506682,30 86.852,30 L84.444,30 C84.2946659,30 84.1640006,29.9440006 84.052,29.832 C83.9399994,29.7199994 83.884,29.5893341 83.884,29.44 C83.884,29.2719992 83.9399994,29.1226673 84.052,28.992 L86.992,24.4 C86.1146623,24.0266648 85.4520022,23.4760036 85.004,22.748 C84.5559978,22.0199964 84.332,21.1613383 84.332,20.172 C84.332,18.6039922 84.8219951,17.4233373 85.802,16.63 C86.7820049,15.8366627 88.2146572,15.44 90.1,15.44 L95.868,15.44 C96.0733344,15.44 96.2366661,15.5006661 96.358,15.622 Z M92.816,18.128 L90.184,18.128 C89.3066623,18.128 88.672002,18.2819985 88.28,18.59 C87.887998,18.8980015 87.692,19.4253296 87.692,20.172 C87.692,20.8626701 87.887998,21.403998 88.28,21.796 C88.672002,22.188002 89.2506628,22.384 90.016,22.384 L92.816,22.384 L92.816,18.128 Z M100.516,29.804 C100.385333,29.6733327 100.32,29.5146676 100.32,29.328 L100.32,16.112 C100.32,15.9066656 100.385333,15.7433339 100.516,15.622 C100.646667,15.5006661 100.805332,15.44 100.992,15.44 L103.372,15.44 C103.558668,15.44 103.717333,15.5053327 103.848,15.636 C103.978667,15.7666673 104.044,15.9253324 104.044,16.112 L104.044,21.096 L110.288,21.096 L110.288,16.112 C110.288,15.9253324 110.353333,15.7666673 110.484,15.636 C110.614667,15.5053327 110.773332,15.44 110.96,15.44 L113.34,15.44 C113.545334,15.44 113.708666,15.5006661 113.83,15.622 C113.951334,15.7433339 114.012,15.9066656 114.012,16.112 L114.012,29.328 C114.012,29.5146676 113.951334,29.6733327 113.83,29.804 C113.708666,29.9346673 113.545334,30 113.34,30 L110.96,30 C110.773332,30 110.614667,29.9346673 110.484,29.804 C110.353333,29.6733327 110.288,29.5146676 110.288,29.328 L110.288,24.092 L104.044,24.092 L104.044,29.328 C104.044,29.5146676 103.978667,29.6733327 103.848,29.804 C103.717333,29.9346673 103.558668,30 103.372,30 L100.992,30 C100.805332,30 100.646667,29.9346673 100.516,29.804 Z M131.54,15.622 C131.670667,15.7433339 131.736,15.8879992 131.736,16.056 L131.736,29.328 C131.736,29.5146676 131.675334,29.6733327 131.554,29.804 C131.432666,29.9346673 131.269334,30 131.064,30 L128.684,30 C128.497332,30 128.338667,29.9346673 128.208,29.804 C128.077333,29.6733327 128.012,29.5146676 128.012,29.328 L128.012,20.396 L121.376,29.552 C121.170666,29.8506682 120.909335,30 120.592,30 L118.436,30 C118.249332,30 118.095334,29.9393339 117.974,29.818 C117.852666,29.6966661 117.792,29.5426676 117.792,29.356 L117.792,16.112 C117.792,15.9066656 117.857333,15.7433339 117.988,15.622 C118.118667,15.5006661 118.277332,15.44 118.464,15.44 L120.844,15.44 C121.030668,15.44 121.189333,15.5053327 121.32,15.636 C121.450667,15.7666673 121.516,15.9253324 121.516,16.112 L121.516,25.044 L128.152,15.888 C128.376001,15.5893318 128.637332,15.44 128.936,15.44 L131.092,15.44 C131.260001,15.44 131.409333,15.5006661 131.54,15.622 Z M136.594,28.488 C135.371327,27.2933274 134.722667,25.5946777 134.648,23.392 L134.62,22.692 C134.62,20.358655 135.231327,18.5200067 136.454,17.176 C137.676673,15.8319933 139.370656,15.16 141.536,15.16 C143.757344,15.16 145.469994,15.8319933 146.674,17.176 C147.878006,18.5200067 148.48,20.3119888 148.48,22.552 L148.48,23.14 C148.48,23.3266676 148.414667,23.4853327 148.284,23.616 C148.153333,23.7466673 147.985334,23.812 147.78,23.812 L138.484,23.812 L138.484,24.036 C138.521334,25.0813386 138.805997,25.9446633 139.338,26.626 C139.870003,27.3073367 140.602662,27.648 141.536,27.648 C142.600005,27.648 143.467997,27.218671 144.14,26.36 C144.308001,26.1546656 144.438666,26.0286669 144.532,25.982 C144.625334,25.9353331 144.783999,25.912 145.008,25.912 L147.472,25.912 C147.640001,25.912 147.784666,25.9586662 147.906,26.052 C148.027334,26.1453338 148.088,26.2759992 148.088,26.444 C148.088,26.8920022 147.822003,27.4193303 147.29,28.026 C146.757997,28.6326697 145.997338,29.1599978 145.008,29.608 C144.018662,30.0560022 142.870673,30.28 141.564,30.28 C139.473323,30.28 137.816673,29.6826726 136.594,28.488 Z M144.616,21.432 L144.616,21.376 C144.616,20.2746612 144.340669,19.39267 143.79,18.73 C143.239331,18.06733 142.488005,17.736 141.536,17.736 C140.583995,17.736 139.837336,18.06733 139.296,18.73 C138.754664,19.39267 138.484,20.2746612 138.484,21.376 L138.484,21.432 L144.616,21.432 Z M160.002,28.74 C159.880666,28.6279994 159.829333,28.4880008 159.848,28.32 L160.324,25.296 L157.944,25.296 C157.757332,25.296 157.603334,25.2353339 157.482,25.114 C157.360666,24.9926661 157.3,24.8386676 157.3,24.652 L157.3,23.028 C157.3,22.8413324 157.360666,22.6873339 157.482,22.566 C157.603334,22.4446661 157.757332,22.384 157.944,22.384 L160.744,22.384 L161.36,18.184 L158.672,18.184 C158.485332,18.184 158.331334,18.1233339 158.21,18.002 C158.088666,17.8806661 158.028,17.7266676 158.028,17.54 L158.028,15.916 C158.028,15.7293324 158.088666,15.5753339 158.21,15.454 C158.331334,15.3326661 158.485332,15.272 158.672,15.272 L161.808,15.272 L162.256,12.248 C162.293334,12.0799992 162.367999,11.9400006 162.48,11.828 C162.592001,11.7159994 162.731999,11.66 162.9,11.66 L164.552,11.66 C164.720001,11.66 164.859999,11.7159994 164.972,11.828 C165.084001,11.9400006 165.14,12.0799992 165.14,12.248 L164.692,15.272 L168.164,15.272 L168.612,12.248 C168.649334,12.0799992 168.723999,11.9400006 168.836,11.828 C168.948001,11.7159994 169.087999,11.66 169.256,11.66 L170.908,11.66 C171.076001,11.66 171.215999,11.7159994 171.328,11.828 C171.440001,11.9400006 171.496,12.0799992 171.496,12.248 L171.048,15.272 L173.372,15.272 C173.558668,15.272 173.712666,15.3326661 173.834,15.454 C173.955334,15.5753339 174.016,15.7293324 174.016,15.916 L174.016,17.54 C174.016,17.7266676 173.955334,17.8806661 173.834,18.002 C173.712666,18.1233339 173.558668,18.184 173.372,18.184 L170.628,18.184 L169.984,22.384 L172.644,22.384 C172.830668,22.384 172.984666,22.4446661 173.106,22.566 C173.227334,22.6873339 173.288,22.8413324 173.288,23.028 L173.288,24.652 C173.288,24.8386676 173.227334,24.9926661 173.106,25.114 C172.984666,25.2353339 172.830668,25.296 172.644,25.296 L169.564,25.296 L169.116,28.32 C169.078666,28.4880008 169.004001,28.6279994 168.892,28.74 C168.779999,28.8520006 168.630668,28.908 168.444,28.908 L166.792,28.908 C166.623999,28.908 166.479334,28.8520006 166.358,28.74 C166.236666,28.6279994 166.185333,28.4880008 166.204,28.32 L166.68,25.296 L163.208,25.296 L162.76,28.32 C162.722666,28.4880008 162.648001,28.6279994 162.536,28.74 C162.423999,28.8520006 162.274668,28.908 162.088,28.908 L160.436,28.908 C160.267999,28.908 160.123334,28.8520006 160.002,28.74 Z M163.628,22.384 L167.1,22.384 L167.716,18.184 L164.272,18.184 L163.628,22.384 Z M179.854,29.496 C178.705994,28.9733307 177.847336,28.3153373 177.278,27.522 C176.708664,26.7286627 176.405334,25.9120042 176.368,25.072 C176.368,24.9039992 176.423999,24.7640006 176.536,24.652 C176.648001,24.5399994 176.787999,24.484 176.956,24.484 L179.532,24.484 C179.942669,24.484 180.222666,24.6706648 180.372,25.044 C180.782669,26.36934 182.014656,27.032 184.068,27.032 C185.206672,27.032 186.097997,26.7706693 186.742,26.248 C187.386003,25.7253307 187.708,24.9786715 187.708,24.008 C187.708,23.0373285 187.414003,22.3326689 186.826,21.894 C186.237997,21.4553311 185.374672,21.236 184.236,21.236 L181.352,21.236 C181.165332,21.236 181.006667,21.1706673 180.876,21.04 C180.745333,20.9093327 180.68,20.7506676 180.68,20.564 L180.68,19.36 C180.68,19.0053316 180.801332,18.7253344 181.044,18.52 L186.028,13.648 L178.048,13.648 C177.842666,13.648 177.674667,13.5826673 177.544,13.452 C177.413333,13.3213327 177.348,13.1626676 177.348,12.976 L177.348,11.1 C177.348,10.8946656 177.413333,10.7266673 177.544,10.596 C177.674667,10.4653327 177.842666,10.4 178.048,10.4 L190.088,10.4 C190.293334,10.4 190.461333,10.4653327 190.592,10.596 C190.722667,10.7266673 190.788,10.8946656 190.788,11.1 L190.788,12.808 C190.788,13.1253349 190.666668,13.3866656 190.424,13.592 L185.608,18.548 L185.944,18.576 C187.736009,18.7253341 189.159328,19.266662 190.214,20.2 C191.268672,21.133338 191.796,22.4679913 191.796,24.204 C191.796,25.4360062 191.46467,26.5093288 190.802,27.424 C190.13933,28.3386712 189.224672,29.0433309 188.058,29.538 C186.891327,30.0326691 185.561341,30.28 184.068,30.28 C182.406658,30.28 181.002006,30.0186693 179.854,29.496 Z" id="Состояние-#3" fill="#030303"></path>
                    <g id="Group" transform="translate(280.000000, 0.000000)">
                        <rect id="Rectangle-2" fill="#6EDDA4" x="0" y="0" width="95" height="38" rx="19"></rect>
                        <path d="M18.44,28.804 C18.3093327,28.6733327 18.244,28.5146676 18.244,28.328 L18.244,10.1 C18.244,9.89466564 18.3046661,9.72666732 18.426,9.596 C18.5473339,9.46533268 18.7106656,9.4 18.916,9.4 L25.748,9.4 C31.2546942,9.4 34.0639994,11.9386413 34.176,17.016 C34.2133335,18.0986721 34.232,18.8266648 34.232,19.2 C34.232,19.5546684 34.2133335,20.2733279 34.176,21.356 C34.101333,23.9693464 33.3966733,25.8966605 32.062,27.138 C30.7273267,28.3793395 28.6693472,29 25.888,29 L18.916,29 C18.7293324,29 18.5706673,28.9346673 18.44,28.804 Z M25.748,25.752 C27.2973411,25.752 28.4173299,25.4066701 29.108,24.716 C29.7986701,24.0253299 30.1626665,22.8773414 30.2,21.272 C30.2373335,20.1519944 30.256,19.4520014 30.256,19.172 C30.256,18.8733318 30.2373335,18.1826721 30.2,17.1 C30.1626665,15.5693257 29.7800036,14.4446703 29.052,13.726 C28.3239964,13.0073297 27.1760078,12.648 25.608,12.648 L22.192,12.648 L22.192,25.752 L25.748,25.752 Z M39.524,27.348 C38.1053262,26.0599936 37.358667,24.1466794 37.284,21.608 C37.2653332,21.066664 37.256,20.2733386 37.256,19.228 C37.256,18.1639947 37.2653332,17.361336 37.284,16.82 C37.358667,14.3373209 38.1239927,12.43334 39.58,11.108 C41.0360073,9.78266004 43.0053209,9.12 45.488,9.12 C47.9520123,9.12 49.9166593,9.78266004 51.382,11.108 C52.8473407,12.43334 53.617333,14.3373209 53.692,16.82 C53.7293335,17.9026721 53.748,18.7053307 53.748,19.228 C53.748,19.7320025 53.7293335,20.5253279 53.692,21.608 C53.617333,24.1466794 52.8660071,26.0599936 51.438,27.348 C50.0099929,28.6360064 48.0266794,29.28 45.488,29.28 C42.9306539,29.28 40.9426738,28.6360064 39.524,27.348 Z M48.456,24.912 C49.1840036,24.1653296 49.5759997,23.0173411 49.632,21.468 C49.6693335,20.3479944 49.688,19.592002 49.688,19.2 C49.688,18.7706645 49.6693335,18.0146721 49.632,16.932 C49.5759997,15.4013257 49.1746704,14.2580038 48.428,13.502 C47.6813296,12.7459962 46.7013394,12.368 45.488,12.368 C44.2559938,12.368 43.2666704,12.7459962 42.52,13.502 C41.7733296,14.2580038 41.3813335,15.4013257 41.344,16.932 C41.3253332,17.473336 41.316,18.2293285 41.316,19.2 C41.316,20.1520048 41.3253332,20.9079972 41.344,21.468 C41.3813335,22.9986743 41.768663,24.1419962 42.506,24.898 C43.243337,25.6540038 44.2373271,26.032 45.488,26.032 C46.7386729,26.032 47.7279964,25.6586704 48.456,24.912 Z M57.584,28.804 C57.4533327,28.6733327 57.388,28.5146676 57.388,28.328 L57.388,10.1 C57.388,9.89466564 57.4486661,9.72666732 57.57,9.596 C57.6913339,9.46533268 57.8546656,9.4 58.06,9.4 L60.328,9.4 C60.6826684,9.4 60.9626656,9.57733156 61.168,9.932 L66.572,19.956 L71.976,9.932 C72.1813344,9.57733156 72.4613316,9.4 72.816,9.4 L75.056,9.4 C75.2613344,9.4 75.4293327,9.46533268 75.56,9.596 C75.6906673,9.72666732 75.756,9.89466564 75.756,10.1 L75.756,28.328 C75.756,28.5333344 75.6906673,28.6966661 75.56,28.818 C75.4293327,28.9393339 75.2613344,29 75.056,29 L72.648,29 C72.4613324,29 72.3026673,28.9346673 72.172,28.804 C72.0413327,28.6733327 71.976,28.5146676 71.976,28.328 L71.976,16.288 L68.084,23.68 C67.8786656,24.0906687 67.5706687,24.296 67.16,24.296 L65.984,24.296 C65.591998,24.296 65.2746679,24.0906687 65.032,23.68 L61.14,16.288 L61.14,28.328 C61.14,28.5146676 61.0793339,28.6733327 60.958,28.804 C60.8366661,28.9346673 60.6733344,29 60.468,29 L58.06,29 C57.8733324,29 57.7146673,28.9346673 57.584,28.804 Z" id="DOM" fill="#FFFFFF"></path>
                    </g>
                    <path d="M217.5,20 L255.5,20" id="Line" stroke="#000000" stroke-width="2" fill="#000000"></path>
                    <path id="Line-decoration-1" d="M217.5,17 L217.5,23" stroke="#000000" stroke-width="2" fill="#000000"></path>
                    <path id="Line-decoration-2" d="M255.5,20 L244.7,17 L244.7,23 L255.5,20 Z" stroke="#000000" stroke-width="2" fill="#000000"></path>
                </g>
                <g id="Group-2" transform="translate(0.000000, 63.000000)">
                    <path d="M3.146,28.306 C1.73665962,26.9899934 0.9853338,25.1186788 0.892,22.692 C0.87333324,22.1879975 0.864,21.3666724 0.864,20.228 C0.864,19.0706609 0.87333324,18.2306693 0.892,17.708 C0.9853338,15.3186547 1.74132624,13.4566733 3.16,12.122 C4.57867376,10.7873267 6.56665388,10.12 9.124,10.12 C10.7853416,10.12 12.2319938,10.4046638 13.464,10.974 C14.6960062,11.5433362 15.6526633,12.3226617 16.334,13.312 C17.0153367,14.3013383 17.3746665,15.4119938 17.412,16.644 L17.412,16.7 C17.412,16.8493341 17.3513339,16.9753328 17.23,17.078 C17.1086661,17.1806672 16.9733341,17.232 16.824,17.232 L14.108,17.232 C13.8839989,17.232 13.7160006,17.1806672 13.604,17.078 C13.4919994,16.9753328 13.398667,16.7933346 13.324,16.532 C13.0439986,15.3746609 12.5586701,14.5580024 11.868,14.082 C11.1773299,13.6059976 10.2626724,13.368 9.124,13.368 C6.45465332,13.368 5.06400056,14.8613184 4.952,17.848 C4.93333324,18.3520025 4.924,19.1266614 4.924,20.172 C4.924,21.2173386 4.93333324,22.010664 4.952,22.552 C5.06400056,25.5386816 6.45465332,27.032 9.124,27.032 C10.2440056,27.032 11.1539965,26.7940024 11.854,26.318 C12.5540035,25.8419976 13.0439986,25.0253391 13.324,23.868 C13.398667,23.6066654 13.4919994,23.4246672 13.604,23.322 C13.7160006,23.2193328 13.8839989,23.168 14.108,23.168 L16.824,23.168 C16.9920008,23.168 17.1366661,23.2239994 17.258,23.336 C17.3793339,23.4480006 17.4306668,23.5879992 17.412,23.756 C17.3746665,24.9880062 17.0153367,26.0986617 16.334,27.088 C15.6526633,28.0773383 14.6960062,28.8566638 13.464,29.426 C12.2319938,29.9953362 10.7853416,30.28 9.124,30.28 C6.54798712,30.28 4.55534038,29.6220066 3.146,28.306 Z M21.78,28.6 C20.5853274,27.4799944 19.9413338,25.9306766 19.848,23.952 L19.82,22.72 L19.848,21.488 C19.9413338,19.5279902 20.5946606,17.983339 21.808,16.854 C23.0213394,15.724661 24.7106558,15.16 26.876,15.16 C29.0226774,15.16 30.7026606,15.724661 31.916,16.854 C33.1293394,17.983339 33.7826662,19.5279902 33.876,21.488 C33.8946668,21.7120011 33.904,22.1226637 33.904,22.72 C33.904,23.3173363 33.8946668,23.7279989 33.876,23.952 C33.7826662,25.9306766 33.1386726,27.4799944 31.944,28.6 C30.7493274,29.7200056 29.0600109,30.28 26.876,30.28 C24.6733223,30.28 22.9746726,29.7200056 21.78,28.6 Z M29.158,26.528 C29.6900027,25.9119969 29.9746665,25.0066726 30.012,23.812 C30.0306668,23.6253324 30.04,23.261336 30.04,22.72 C30.04,22.178664 30.0306668,21.8146676 30.012,21.628 C29.9746665,20.4333274 29.685336,19.5233365 29.144,18.898 C28.602664,18.2726635 27.8466715,17.96 26.876,17.96 C25.8866617,17.96 25.121336,18.2726635 24.58,18.898 C24.038664,19.5233365 23.7493335,20.4333274 23.712,21.628 L23.684,22.72 L23.712,23.812 C23.7493335,25.0066726 24.038664,25.9119969 24.58,26.528 C25.121336,27.1440031 25.8866617,27.452 26.876,27.452 C27.8653383,27.452 28.6259973,27.1440031 29.158,26.528 Z M38.398,28.572 C37.1753272,27.4333276 36.526667,25.8560101 36.452,23.84 L36.424,22.72 L36.452,21.6 C36.526667,19.5839899 37.1753272,18.0066724 38.398,16.868 C39.6206728,15.7293276 41.2586564,15.16 43.312,15.16 C44.786674,15.16 46.0326616,15.4213307 47.05,15.944 C48.0673384,16.4666693 48.8233309,17.1059962 49.318,17.862 C49.8126691,18.6180038 50.0786665,19.3413299 50.116,20.032 C50.1346668,20.2186676 50.0740007,20.3773327 49.934,20.508 C49.7939993,20.6386673 49.6306676,20.704 49.444,20.704 L46.952,20.704 C46.7466656,20.704 46.5973338,20.6620004 46.504,20.578 C46.4106662,20.4939996 46.3173338,20.3400011 46.224,20.116 C45.9439986,19.4066631 45.5753356,18.8933349 45.118,18.576 C44.6606644,18.2586651 44.0773369,18.1 43.368,18.1 C42.4159952,18.1 41.6740027,18.3986637 41.142,18.996 C40.6099973,19.5933363 40.3253335,20.5079938 40.288,21.74 L40.26,22.776 L40.288,23.7 C40.4000006,26.1266788 41.426657,27.34 43.368,27.34 C44.0960036,27.34 44.6839978,27.1860015 45.132,26.878 C45.5800022,26.5699985 45.9439986,26.0520036 46.224,25.324 C46.298667,25.1186656 46.3873328,24.9693338 46.49,24.876 C46.5926672,24.7826662 46.7466656,24.736 46.952,24.736 L49.444,24.736 C49.6306676,24.736 49.7939993,24.8013327 49.934,24.932 C50.0740007,25.0626673 50.1346668,25.2213324 50.116,25.408 C50.0786665,26.0613366 49.8173358,26.7659962 49.332,27.522 C48.8466642,28.2780038 48.100005,28.926664 47.092,29.468 C46.083995,30.009336 44.8240076,30.28 43.312,30.28 C41.2586564,30.28 39.6206728,29.7106724 38.398,28.572 Z M56.976,29.804 C56.8453327,29.6733327 56.78,29.5146676 56.78,29.328 L56.78,18.436 L52.244,18.436 C52.0573324,18.436 51.8986673,18.3706673 51.768,18.24 C51.6373327,18.1093327 51.572,17.9506676 51.572,17.764 L51.572,16.112 C51.572,15.9066656 51.6373327,15.7433339 51.768,15.622 C51.8986673,15.5006661 52.0573324,15.44 52.244,15.44 L64.984,15.44 C65.1893344,15.44 65.3526661,15.5006661 65.474,15.622 C65.5953339,15.7433339 65.656,15.9066656 65.656,16.112 L65.656,17.764 C65.656,17.9506676 65.5953339,18.1093327 65.474,18.24 C65.3526661,18.3706673 65.1893344,18.436 64.984,18.436 L60.448,18.436 L60.448,29.328 C60.448,29.5146676 60.3873339,29.6733327 60.266,29.804 C60.1446661,29.9346673 59.9813344,30 59.776,30 L57.452,30 C57.2653324,30 57.1066673,29.9346673 56.976,29.804 Z M69.268,28.6 C68.0733274,27.4799944 67.4293338,25.9306766 67.336,23.952 L67.308,22.72 L67.336,21.488 C67.4293338,19.5279902 68.0826606,17.983339 69.296,16.854 C70.5093394,15.724661 72.1986558,15.16 74.364,15.16 C76.5106774,15.16 78.1906606,15.724661 79.404,16.854 C80.6173394,17.983339 81.2706662,19.5279902 81.364,21.488 C81.3826668,21.7120011 81.392,22.1226637 81.392,22.72 C81.392,23.3173363 81.3826668,23.7279989 81.364,23.952 C81.2706662,25.9306766 80.6266726,27.4799944 79.432,28.6 C78.2373274,29.7200056 76.5480109,30.28 74.364,30.28 C72.1613223,30.28 70.4626726,29.7200056 69.268,28.6 Z M76.646,26.528 C77.1780027,25.9119969 77.4626665,25.0066726 77.5,23.812 C77.5186668,23.6253324 77.528,23.261336 77.528,22.72 C77.528,22.178664 77.5186668,21.8146676 77.5,21.628 C77.4626665,20.4333274 77.173336,19.5233365 76.632,18.898 C76.090664,18.2726635 75.3346715,17.96 74.364,17.96 C73.3746617,17.96 72.609336,18.2726635 72.068,18.898 C71.526664,19.5233365 71.2373335,20.4333274 71.2,21.628 L71.172,22.72 L71.2,23.812 C71.2373335,25.0066726 71.526664,25.9119969 72.068,26.528 C72.609336,27.1440031 73.3746617,27.452 74.364,27.452 C75.3533383,27.452 76.1139973,27.1440031 76.646,26.528 Z M96.666,15.622 C96.7873339,15.7433339 96.848,15.9066656 96.848,16.112 L96.848,29.328 C96.848,29.5146676 96.7873339,29.6733327 96.666,29.804 C96.5446661,29.9346673 96.3813344,30 96.176,30 L93.74,30 C93.5533324,30 93.3946673,29.9346673 93.264,29.804 C93.1333327,29.6733327 93.068,29.5146676 93.068,29.328 L93.068,25.072 L90.576,25.072 L87.86,29.58 C87.6919992,29.8600014 87.4586682,30 87.16,30 L84.752,30 C84.6026659,30 84.4720006,29.9440006 84.36,29.832 C84.2479994,29.7199994 84.192,29.5893341 84.192,29.44 C84.192,29.2719992 84.2479994,29.1226673 84.36,28.992 L87.3,24.4 C86.4226623,24.0266648 85.7600022,23.4760036 85.312,22.748 C84.8639978,22.0199964 84.64,21.1613383 84.64,20.172 C84.64,18.6039922 85.1299951,17.4233373 86.11,16.63 C87.0900049,15.8366627 88.5226572,15.44 90.408,15.44 L96.176,15.44 C96.3813344,15.44 96.5446661,15.5006661 96.666,15.622 Z M93.124,18.128 L90.492,18.128 C89.6146623,18.128 88.980002,18.2819985 88.588,18.59 C88.195998,18.8980015 88,19.4253296 88,20.172 C88,20.8626701 88.195998,21.403998 88.588,21.796 C88.980002,22.188002 89.5586628,22.384 90.324,22.384 L93.124,22.384 L93.124,18.128 Z M100.824,29.804 C100.693333,29.6733327 100.628,29.5146676 100.628,29.328 L100.628,16.112 C100.628,15.9066656 100.693333,15.7433339 100.824,15.622 C100.954667,15.5006661 101.113332,15.44 101.3,15.44 L103.68,15.44 C103.866668,15.44 104.025333,15.5053327 104.156,15.636 C104.286667,15.7666673 104.352,15.9253324 104.352,16.112 L104.352,21.096 L110.596,21.096 L110.596,16.112 C110.596,15.9253324 110.661333,15.7666673 110.792,15.636 C110.922667,15.5053327 111.081332,15.44 111.268,15.44 L113.648,15.44 C113.853334,15.44 114.016666,15.5006661 114.138,15.622 C114.259334,15.7433339 114.32,15.9066656 114.32,16.112 L114.32,29.328 C114.32,29.5146676 114.259334,29.6733327 114.138,29.804 C114.016666,29.9346673 113.853334,30 113.648,30 L111.268,30 C111.081332,30 110.922667,29.9346673 110.792,29.804 C110.661333,29.6733327 110.596,29.5146676 110.596,29.328 L110.596,24.092 L104.352,24.092 L104.352,29.328 C104.352,29.5146676 104.286667,29.6733327 104.156,29.804 C104.025333,29.9346673 103.866668,30 103.68,30 L101.3,30 C101.113332,30 100.954667,29.9346673 100.824,29.804 Z M131.848,15.622 C131.978667,15.7433339 132.044,15.8879992 132.044,16.056 L132.044,29.328 C132.044,29.5146676 131.983334,29.6733327 131.862,29.804 C131.740666,29.9346673 131.577334,30 131.372,30 L128.992,30 C128.805332,30 128.646667,29.9346673 128.516,29.804 C128.385333,29.6733327 128.32,29.5146676 128.32,29.328 L128.32,20.396 L121.684,29.552 C121.478666,29.8506682 121.217335,30 120.9,30 L118.744,30 C118.557332,30 118.403334,29.9393339 118.282,29.818 C118.160666,29.6966661 118.1,29.5426676 118.1,29.356 L118.1,16.112 C118.1,15.9066656 118.165333,15.7433339 118.296,15.622 C118.426667,15.5006661 118.585332,15.44 118.772,15.44 L121.152,15.44 C121.338668,15.44 121.497333,15.5053327 121.628,15.636 C121.758667,15.7666673 121.824,15.9253324 121.824,16.112 L121.824,25.044 L128.46,15.888 C128.684001,15.5893318 128.945332,15.44 129.244,15.44 L131.4,15.44 C131.568001,15.44 131.717333,15.5006661 131.848,15.622 Z M136.902,28.488 C135.679327,27.2933274 135.030667,25.5946777 134.956,23.392 L134.928,22.692 C134.928,20.358655 135.539327,18.5200067 136.762,17.176 C137.984673,15.8319933 139.678656,15.16 141.844,15.16 C144.065344,15.16 145.777994,15.8319933 146.982,17.176 C148.186006,18.5200067 148.788,20.3119888 148.788,22.552 L148.788,23.14 C148.788,23.3266676 148.722667,23.4853327 148.592,23.616 C148.461333,23.7466673 148.293334,23.812 148.088,23.812 L138.792,23.812 L138.792,24.036 C138.829334,25.0813386 139.113997,25.9446633 139.646,26.626 C140.178003,27.3073367 140.910662,27.648 141.844,27.648 C142.908005,27.648 143.775997,27.218671 144.448,26.36 C144.616001,26.1546656 144.746666,26.0286669 144.84,25.982 C144.933334,25.9353331 145.091999,25.912 145.316,25.912 L147.78,25.912 C147.948001,25.912 148.092666,25.9586662 148.214,26.052 C148.335334,26.1453338 148.396,26.2759992 148.396,26.444 C148.396,26.8920022 148.130003,27.4193303 147.598,28.026 C147.065997,28.6326697 146.305338,29.1599978 145.316,29.608 C144.326662,30.0560022 143.178673,30.28 141.872,30.28 C139.781323,30.28 138.124673,29.6826726 136.902,28.488 Z M144.924,21.432 L144.924,21.376 C144.924,20.2746612 144.648669,19.39267 144.098,18.73 C143.547331,18.06733 142.796005,17.736 141.844,17.736 C140.891995,17.736 140.145336,18.06733 139.604,18.73 C139.062664,19.39267 138.792,20.2746612 138.792,21.376 L138.792,21.432 L144.924,21.432 Z M160.31,28.74 C160.188666,28.6279994 160.137333,28.4880008 160.156,28.32 L160.632,25.296 L158.252,25.296 C158.065332,25.296 157.911334,25.2353339 157.79,25.114 C157.668666,24.9926661 157.608,24.8386676 157.608,24.652 L157.608,23.028 C157.608,22.8413324 157.668666,22.6873339 157.79,22.566 C157.911334,22.4446661 158.065332,22.384 158.252,22.384 L161.052,22.384 L161.668,18.184 L158.98,18.184 C158.793332,18.184 158.639334,18.1233339 158.518,18.002 C158.396666,17.8806661 158.336,17.7266676 158.336,17.54 L158.336,15.916 C158.336,15.7293324 158.396666,15.5753339 158.518,15.454 C158.639334,15.3326661 158.793332,15.272 158.98,15.272 L162.116,15.272 L162.564,12.248 C162.601334,12.0799992 162.675999,11.9400006 162.788,11.828 C162.900001,11.7159994 163.039999,11.66 163.208,11.66 L164.86,11.66 C165.028001,11.66 165.167999,11.7159994 165.28,11.828 C165.392001,11.9400006 165.448,12.0799992 165.448,12.248 L165,15.272 L168.472,15.272 L168.92,12.248 C168.957334,12.0799992 169.031999,11.9400006 169.144,11.828 C169.256001,11.7159994 169.395999,11.66 169.564,11.66 L171.216,11.66 C171.384001,11.66 171.523999,11.7159994 171.636,11.828 C171.748001,11.9400006 171.804,12.0799992 171.804,12.248 L171.356,15.272 L173.68,15.272 C173.866668,15.272 174.020666,15.3326661 174.142,15.454 C174.263334,15.5753339 174.324,15.7293324 174.324,15.916 L174.324,17.54 C174.324,17.7266676 174.263334,17.8806661 174.142,18.002 C174.020666,18.1233339 173.866668,18.184 173.68,18.184 L170.936,18.184 L170.292,22.384 L172.952,22.384 C173.138668,22.384 173.292666,22.4446661 173.414,22.566 C173.535334,22.6873339 173.596,22.8413324 173.596,23.028 L173.596,24.652 C173.596,24.8386676 173.535334,24.9926661 173.414,25.114 C173.292666,25.2353339 173.138668,25.296 172.952,25.296 L169.872,25.296 L169.424,28.32 C169.386666,28.4880008 169.312001,28.6279994 169.2,28.74 C169.087999,28.8520006 168.938668,28.908 168.752,28.908 L167.1,28.908 C166.931999,28.908 166.787334,28.8520006 166.666,28.74 C166.544666,28.6279994 166.493333,28.4880008 166.512,28.32 L166.988,25.296 L163.516,25.296 L163.068,28.32 C163.030666,28.4880008 162.956001,28.6279994 162.844,28.74 C162.731999,28.8520006 162.582668,28.908 162.396,28.908 L160.744,28.908 C160.575999,28.908 160.431334,28.8520006 160.31,28.74 Z M163.936,22.384 L167.408,22.384 L168.024,18.184 L164.58,18.184 L163.936,22.384 Z M177.096,29.804 C176.965333,29.6733327 176.9,29.5146676 176.9,29.328 L176.9,27.872 C176.9,27.3493307 177.133331,26.9106684 177.6,26.556 L181.968,22.216 C183.29334,21.1706614 184.31533,20.31667 185.034,19.654 C185.75267,18.99133 186.289332,18.3800028 186.644,17.82 C186.998668,17.2599972 187.176,16.709336 187.176,16.168 C187.176,15.2906623 186.942669,14.6000025 186.476,14.096 C186.009331,13.5919975 185.300005,13.34 184.348,13.34 C183.414662,13.34 182.682003,13.6153306 182.15,14.166 C181.617997,14.7166694 181.286667,15.4306623 181.156,16.308 C181.1,16.5320011 180.992667,16.6953328 180.834,16.798 C180.675333,16.9006672 180.502668,16.952 180.316,16.952 L177.796,16.952 C177.627999,16.952 177.488001,16.8960006 177.376,16.784 C177.263999,16.6719994 177.208,16.5320008 177.208,16.364 C177.245334,15.2626612 177.548664,14.2313381 178.118,13.27 C178.687336,12.3086619 179.503995,11.5340029 180.568,10.946 C181.632005,10.3579971 182.882659,10.064 184.32,10.064 C185.813341,10.064 187.082661,10.3206641 188.128,10.834 C189.173339,11.3473359 189.957331,12.0519955 190.48,12.948 C191.002669,13.8440045 191.264,14.8613276 191.264,16 C191.264,17.2506729 190.914003,18.3846616 190.214,19.402 C189.513996,20.4193384 188.426674,21.5066609 186.952,22.664 L183.06,26.612 L190.984,26.612 C191.189334,26.612 191.357333,26.6773327 191.488,26.808 C191.618667,26.9386673 191.684,27.1066656 191.684,27.312 L191.684,29.328 C191.684,29.5333344 191.618667,29.6966661 191.488,29.818 C191.357333,29.9393339 191.189334,30 190.984,30 L177.572,30 C177.385332,30 177.226667,29.9346673 177.096,29.804 Z" id="Состояние-#2" fill="#030303"></path>
                    <g id="Group" transform="translate(280.000000, 0.000000)">
                        <rect id="Rectangle-2" fill="#FD789C" x="0" y="0" width="95" height="38" rx="19"></rect>
                        <path d="M18.44,28.804 C18.3093327,28.6733327 18.244,28.5146676 18.244,28.328 L18.244,10.1 C18.244,9.89466564 18.3046661,9.72666732 18.426,9.596 C18.5473339,9.46533268 18.7106656,9.4 18.916,9.4 L25.748,9.4 C31.2546942,9.4 34.0639994,11.9386413 34.176,17.016 C34.2133335,18.0986721 34.232,18.8266648 34.232,19.2 C34.232,19.5546684 34.2133335,20.2733279 34.176,21.356 C34.101333,23.9693464 33.3966733,25.8966605 32.062,27.138 C30.7273267,28.3793395 28.6693472,29 25.888,29 L18.916,29 C18.7293324,29 18.5706673,28.9346673 18.44,28.804 Z M25.748,25.752 C27.2973411,25.752 28.4173299,25.4066701 29.108,24.716 C29.7986701,24.0253299 30.1626665,22.8773414 30.2,21.272 C30.2373335,20.1519944 30.256,19.4520014 30.256,19.172 C30.256,18.8733318 30.2373335,18.1826721 30.2,17.1 C30.1626665,15.5693257 29.7800036,14.4446703 29.052,13.726 C28.3239964,13.0073297 27.1760078,12.648 25.608,12.648 L22.192,12.648 L22.192,25.752 L25.748,25.752 Z M39.524,27.348 C38.1053262,26.0599936 37.358667,24.1466794 37.284,21.608 C37.2653332,21.066664 37.256,20.2733386 37.256,19.228 C37.256,18.1639947 37.2653332,17.361336 37.284,16.82 C37.358667,14.3373209 38.1239927,12.43334 39.58,11.108 C41.0360073,9.78266004 43.0053209,9.12 45.488,9.12 C47.9520123,9.12 49.9166593,9.78266004 51.382,11.108 C52.8473407,12.43334 53.617333,14.3373209 53.692,16.82 C53.7293335,17.9026721 53.748,18.7053307 53.748,19.228 C53.748,19.7320025 53.7293335,20.5253279 53.692,21.608 C53.617333,24.1466794 52.8660071,26.0599936 51.438,27.348 C50.0099929,28.6360064 48.0266794,29.28 45.488,29.28 C42.9306539,29.28 40.9426738,28.6360064 39.524,27.348 Z M48.456,24.912 C49.1840036,24.1653296 49.5759997,23.0173411 49.632,21.468 C49.6693335,20.3479944 49.688,19.592002 49.688,19.2 C49.688,18.7706645 49.6693335,18.0146721 49.632,16.932 C49.5759997,15.4013257 49.1746704,14.2580038 48.428,13.502 C47.6813296,12.7459962 46.7013394,12.368 45.488,12.368 C44.2559938,12.368 43.2666704,12.7459962 42.52,13.502 C41.7733296,14.2580038 41.3813335,15.4013257 41.344,16.932 C41.3253332,17.473336 41.316,18.2293285 41.316,19.2 C41.316,20.1520048 41.3253332,20.9079972 41.344,21.468 C41.3813335,22.9986743 41.768663,24.1419962 42.506,24.898 C43.243337,25.6540038 44.2373271,26.032 45.488,26.032 C46.7386729,26.032 47.7279964,25.6586704 48.456,24.912 Z M57.584,28.804 C57.4533327,28.6733327 57.388,28.5146676 57.388,28.328 L57.388,10.1 C57.388,9.89466564 57.4486661,9.72666732 57.57,9.596 C57.6913339,9.46533268 57.8546656,9.4 58.06,9.4 L60.328,9.4 C60.6826684,9.4 60.9626656,9.57733156 61.168,9.932 L66.572,19.956 L71.976,9.932 C72.1813344,9.57733156 72.4613316,9.4 72.816,9.4 L75.056,9.4 C75.2613344,9.4 75.4293327,9.46533268 75.56,9.596 C75.6906673,9.72666732 75.756,9.89466564 75.756,10.1 L75.756,28.328 C75.756,28.5333344 75.6906673,28.6966661 75.56,28.818 C75.4293327,28.9393339 75.2613344,29 75.056,29 L72.648,29 C72.4613324,29 72.3026673,28.9346673 72.172,28.804 C72.0413327,28.6733327 71.976,28.5146676 71.976,28.328 L71.976,16.288 L68.084,23.68 C67.8786656,24.0906687 67.5706687,24.296 67.16,24.296 L65.984,24.296 C65.591998,24.296 65.2746679,24.0906687 65.032,23.68 L61.14,16.288 L61.14,28.328 C61.14,28.5146676 61.0793339,28.6733327 60.958,28.804 C60.8366661,28.9346673 60.6733344,29 60.468,29 L58.06,29 C57.8733324,29 57.7146673,28.9346673 57.584,28.804 Z" id="DOM" fill="#FFFFFF"></path>
                    </g>
                    <path d="M217.5,20 L255.5,20" id="Line" stroke="#000000" stroke-width="2" fill="#000000"></path>
                    <path id="Line-decoration-1" d="M217.5,17 L217.5,23" stroke="#000000" stroke-width="2" fill="#000000"></path>
                    <path id="Line-decoration-2" d="M255.5,20 L244.7,17 L244.7,23 L255.5,20 Z" stroke="#000000" stroke-width="2" fill="#000000"></path>
                </g>
                <path d="M165.194,214.804 C165.063333,214.673333 164.998,214.514668 164.998,214.328 L164.998,211.5 C164.998,211.313332 165.063333,211.154667 165.194,211.024 C165.324667,210.893333 165.483332,210.828 165.67,210.828 L168.498,210.828 C168.684668,210.828 168.843333,210.893333 168.974,211.024 C169.104667,211.154667 169.17,211.313332 169.17,211.5 L169.17,214.328 C169.17,214.514668 169.109334,214.673333 168.988,214.804 C168.866666,214.934667 168.703334,215 168.498,215 L165.67,215 C165.483332,215 165.324667,214.934667 165.194,214.804 Z M179.11,214.804 C178.979333,214.673333 178.914,214.514668 178.914,214.328 L178.914,211.5 C178.914,211.313332 178.979333,211.154667 179.11,211.024 C179.240667,210.893333 179.399332,210.828 179.586,210.828 L182.414,210.828 C182.600668,210.828 182.759333,210.893333 182.89,211.024 C183.020667,211.154667 183.086,211.313332 183.086,211.5 L183.086,214.328 C183.086,214.514668 183.025334,214.673333 182.904,214.804 C182.782666,214.934667 182.619334,215 182.414,215 L179.586,215 C179.399332,215 179.240667,214.934667 179.11,214.804 Z M193.026,214.804 C192.895333,214.673333 192.83,214.514668 192.83,214.328 L192.83,211.5 C192.83,211.313332 192.895333,211.154667 193.026,211.024 C193.156667,210.893333 193.315332,210.828 193.502,210.828 L196.33,210.828 C196.516668,210.828 196.675333,210.893333 196.806,211.024 C196.936667,211.154667 197.002,211.313332 197.002,211.5 L197.002,214.328 C197.002,214.514668 196.941334,214.673333 196.82,214.804 C196.698666,214.934667 196.535334,215 196.33,215 L193.502,215 C193.315332,215 193.156667,214.934667 193.026,214.804 Z" id=".-.-." fill="#030303"></path>
            </g>
        </g>
    </g>
</svg>