<?xml version="1.0" encoding="UTF-8"?>
<svg width="900px" height="600px" viewBox="0 0 900 600" version="1.1" xmlns="http://www.w3.org/2000/svg" xmlns:xlink="http://www.w3.org/1999/xlink">
    <!-- Generator: Sketch 41.2 (35397) - http://www.bohemiancoding.com/sketch -->
    <title>Desktop Copy</title>
    <desc>Created with Sketch.</desc>
    <defs></defs>
    <g id="Page-1" stroke="none" stroke-width="1" fill="none" fill-rule="evenodd">
        <g id="Desktop-Copy">
            <g id="Group-2" transform="translate(292.000000, 262.000000)">
                <path d="M3.002,26.306 C1.59265962,24.9899934 0.8413338,23.1186788 0.748,20.692 C0.72933324,20.1879975 0.72,19.3666724 0.72,18.228 C0.72,17.0706609 0.72933324,16.2306693 0.748,15.708 C0.8413338,13.3186547 1.59732624,11.4566733 3.016,10.122 C4.43467376,8.78732666 6.42265388,8.12 8.98,8.12 C10.6413416,8.12 12.0879938,8.40466382 13.32,8.974 C14.5520062,9.54333618 15.5086633,10.3226617 16.19,11.312 C16.8713367,12.3013383 17.2306665,13.4119938 17.268,14.644 L17.268,14.7 C17.268,14.8493341 17.2073339,14.9753328 17.086,15.078 C16.9646661,15.1806672 16.8293341,15.232 16.68,15.232 L13.964,15.232 C13.7399989,15.232 13.5720006,15.1806672 13.46,15.078 C13.3479994,14.9753328 13.254667,14.7933346 13.18,14.532 C12.8999986,13.3746609 12.4146701,12.5580024 11.724,12.082 C11.0333299,11.6059976 10.1186724,11.368 8.98,11.368 C6.31065332,11.368 4.92000056,12.8613184 4.808,15.848 C4.78933324,16.3520025 4.78,17.1266614 4.78,18.172 C4.78,19.2173386 4.78933324,20.010664 4.808,20.552 C4.92000056,23.5386816 6.31065332,25.032 8.98,25.032 C10.1000056,25.032 11.0099965,24.7940024 11.71,24.318 C12.4100035,23.8419976 12.8999986,23.0253391 13.18,21.868 C13.254667,21.6066654 13.3479994,21.4246672 13.46,21.322 C13.5720006,21.2193328 13.7399989,21.168 13.964,21.168 L16.68,21.168 C16.8480008,21.168 16.9926661,21.2239994 17.114,21.336 C17.2353339,21.4480006 17.2866668,21.5879992 17.268,21.756 C17.2306665,22.9880062 16.8713367,24.0986617 16.19,25.088 C15.5086633,26.0773383 14.5520062,26.8566638 13.32,27.426 C12.0879938,27.9953362 10.6413416,28.28 8.98,28.28 C6.40398712,28.28 4.41134038,27.6220066 3.002,26.306 Z M21.636,26.6 C20.4413274,25.4799944 19.7973338,23.9306766 19.704,21.952 L19.676,20.72 L19.704,19.488 C19.7973338,17.5279902 20.4506606,15.983339 21.664,14.854 C22.8773394,13.724661 24.5666558,13.16 26.732,13.16 C28.8786774,13.16 30.5586606,13.724661 31.772,14.854 C32.9853394,15.983339 33.6386662,17.5279902 33.732,19.488 C33.7506668,19.7120011 33.76,20.1226637 33.76,20.72 C33.76,21.3173363 33.7506668,21.7279989 33.732,21.952 C33.6386662,23.9306766 32.9946726,25.4799944 31.8,26.6 C30.6053274,27.7200056 28.9160109,28.28 26.732,28.28 C24.5293223,28.28 22.8306726,27.7200056 21.636,26.6 Z M29.014,24.528 C29.5460027,23.9119969 29.8306665,23.0066726 29.868,21.812 C29.8866668,21.6253324 29.896,21.261336 29.896,20.72 C29.896,20.178664 29.8866668,19.8146676 29.868,19.628 C29.8306665,18.4333274 29.541336,17.5233365 29,16.898 C28.458664,16.2726635 27.7026715,15.96 26.732,15.96 C25.7426617,15.96 24.977336,16.2726635 24.436,16.898 C23.894664,17.5233365 23.6053335,18.4333274 23.568,19.628 L23.54,20.72 L23.568,21.812 C23.6053335,23.0066726 23.894664,23.9119969 24.436,24.528 C24.977336,25.1440031 25.7426617,25.452 26.732,25.452 C27.7213383,25.452 28.4819973,25.1440031 29.014,24.528 Z M38.254,26.572 C37.0313272,25.4333276 36.382667,23.8560101 36.308,21.84 L36.28,20.72 L36.308,19.6 C36.382667,17.5839899 37.0313272,16.0066724 38.254,14.868 C39.4766728,13.7293276 41.1146564,13.16 43.168,13.16 C44.642674,13.16 45.8886616,13.4213307 46.906,13.944 C47.9233384,14.4666693 48.6793309,15.1059962 49.174,15.862 C49.6686691,16.6180038 49.9346665,17.3413299 49.972,18.032 C49.9906668,18.2186676 49.9300007,18.3773327 49.79,18.508 C49.6499993,18.6386673 49.4866676,18.704 49.3,18.704 L46.808,18.704 C46.6026656,18.704 46.4533338,18.6620004 46.36,18.578 C46.2666662,18.4939996 46.1733338,18.3400011 46.08,18.116 C45.7999986,17.4066631 45.4313356,16.8933349 44.974,16.576 C44.5166644,16.2586651 43.9333369,16.1 43.224,16.1 C42.2719952,16.1 41.5300027,16.3986637 40.998,16.996 C40.4659973,17.5933363 40.1813335,18.5079938 40.144,19.74 L40.116,20.776 L40.144,21.7 C40.2560006,24.1266788 41.282657,25.34 43.224,25.34 C43.9520036,25.34 44.5399978,25.1860015 44.988,24.878 C45.4360022,24.5699985 45.7999986,24.0520036 46.08,23.324 C46.154667,23.1186656 46.2433328,22.9693338 46.346,22.876 C46.4486672,22.7826662 46.6026656,22.736 46.808,22.736 L49.3,22.736 C49.4866676,22.736 49.6499993,22.8013327 49.79,22.932 C49.9300007,23.0626673 49.9906668,23.2213324 49.972,23.408 C49.9346665,24.0613366 49.6733358,24.7659962 49.188,25.522 C48.7026642,26.2780038 47.956005,26.926664 46.948,27.468 C45.939995,28.009336 44.6800076,28.28 43.168,28.28 C41.1146564,28.28 39.4766728,27.7106724 38.254,26.572 Z M56.832,27.804 C56.7013327,27.6733327 56.636,27.5146676 56.636,27.328 L56.636,16.436 L52.1,16.436 C51.9133324,16.436 51.7546673,16.3706673 51.624,16.24 C51.4933327,16.1093327 51.428,15.9506676 51.428,15.764 L51.428,14.112 C51.428,13.9066656 51.4933327,13.7433339 51.624,13.622 C51.7546673,13.5006661 51.9133324,13.44 52.1,13.44 L64.84,13.44 C65.0453344,13.44 65.2086661,13.5006661 65.33,13.622 C65.4513339,13.7433339 65.512,13.9066656 65.512,14.112 L65.512,15.764 C65.512,15.9506676 65.4513339,16.1093327 65.33,16.24 C65.2086661,16.3706673 65.0453344,16.436 64.84,16.436 L60.304,16.436 L60.304,27.328 C60.304,27.5146676 60.2433339,27.6733327 60.122,27.804 C60.0006661,27.9346673 59.8373344,28 59.632,28 L57.308,28 C57.1213324,28 56.9626673,27.9346673 56.832,27.804 Z M69.124,26.6 C67.9293274,25.4799944 67.2853338,23.9306766 67.192,21.952 L67.164,20.72 L67.192,19.488 C67.2853338,17.5279902 67.9386606,15.983339 69.152,14.854 C70.3653394,13.724661 72.0546558,13.16 74.22,13.16 C76.3666774,13.16 78.0466606,13.724661 79.26,14.854 C80.4733394,15.983339 81.1266662,17.5279902 81.22,19.488 C81.2386668,19.7120011 81.248,20.1226637 81.248,20.72 C81.248,21.3173363 81.2386668,21.7279989 81.22,21.952 C81.1266662,23.9306766 80.4826726,25.4799944 79.288,26.6 C78.0933274,27.7200056 76.4040109,28.28 74.22,28.28 C72.0173223,28.28 70.3186726,27.7200056 69.124,26.6 Z M76.502,24.528 C77.0340027,23.9119969 77.3186665,23.0066726 77.356,21.812 C77.3746668,21.6253324 77.384,21.261336 77.384,20.72 C77.384,20.178664 77.3746668,19.8146676 77.356,19.628 C77.3186665,18.4333274 77.029336,17.5233365 76.488,16.898 C75.946664,16.2726635 75.1906715,15.96 74.22,15.96 C73.2306617,15.96 72.465336,16.2726635 71.924,16.898 C71.382664,17.5233365 71.0933335,18.4333274 71.056,19.628 L71.028,20.72 L71.056,21.812 C71.0933335,23.0066726 71.382664,23.9119969 71.924,24.528 C72.465336,25.1440031 73.2306617,25.452 74.22,25.452 C75.2093383,25.452 75.9699973,25.1440031 76.502,24.528 Z M96.522,13.622 C96.6433339,13.7433339 96.704,13.9066656 96.704,14.112 L96.704,27.328 C96.704,27.5146676 96.6433339,27.6733327 96.522,27.804 C96.4006661,27.9346673 96.2373344,28 96.032,28 L93.596,28 C93.4093324,28 93.2506673,27.9346673 93.12,27.804 C92.9893327,27.6733327 92.924,27.5146676 92.924,27.328 L92.924,23.072 L90.432,23.072 L87.716,27.58 C87.5479992,27.8600014 87.3146682,28 87.016,28 L84.608,28 C84.4586659,28 84.3280006,27.9440006 84.216,27.832 C84.1039994,27.7199994 84.048,27.5893341 84.048,27.44 C84.048,27.2719992 84.1039994,27.1226673 84.216,26.992 L87.156,22.4 C86.2786623,22.0266648 85.6160022,21.4760036 85.168,20.748 C84.7199978,20.0199964 84.496,19.1613383 84.496,18.172 C84.496,16.6039922 84.9859951,15.4233373 85.966,14.63 C86.9460049,13.8366627 88.3786572,13.44 90.264,13.44 L96.032,13.44 C96.2373344,13.44 96.4006661,13.5006661 96.522,13.622 Z M92.98,16.128 L90.348,16.128 C89.4706623,16.128 88.836002,16.2819985 88.444,16.59 C88.051998,16.8980015 87.856,17.4253296 87.856,18.172 C87.856,18.8626701 88.051998,19.403998 88.444,19.796 C88.836002,20.188002 89.4146628,20.384 90.18,20.384 L92.98,20.384 L92.98,16.128 Z M100.68,27.804 C100.549333,27.6733327 100.484,27.5146676 100.484,27.328 L100.484,14.112 C100.484,13.9066656 100.549333,13.7433339 100.68,13.622 C100.810667,13.5006661 100.969332,13.44 101.156,13.44 L103.536,13.44 C103.722668,13.44 103.881333,13.5053327 104.012,13.636 C104.142667,13.7666673 104.208,13.9253324 104.208,14.112 L104.208,19.096 L110.452,19.096 L110.452,14.112 C110.452,13.9253324 110.517333,13.7666673 110.648,13.636 C110.778667,13.5053327 110.937332,13.44 111.124,13.44 L113.504,13.44 C113.709334,13.44 113.872666,13.5006661 113.994,13.622 C114.115334,13.7433339 114.176,13.9066656 114.176,14.112 L114.176,27.328 C114.176,27.5146676 114.115334,27.6733327 113.994,27.804 C113.872666,27.9346673 113.709334,28 113.504,28 L111.124,28 C110.937332,28 110.778667,27.9346673 110.648,27.804 C110.517333,27.6733327 110.452,27.5146676 110.452,27.328 L110.452,22.092 L104.208,22.092 L104.208,27.328 C104.208,27.5146676 104.142667,27.6733327 104.012,27.804 C103.881333,27.9346673 103.722668,28 103.536,28 L101.156,28 C100.969332,28 100.810667,27.9346673 100.68,27.804 Z M131.704,13.622 C131.834667,13.7433339 131.9,13.8879992 131.9,14.056 L131.9,27.328 C131.9,27.5146676 131.839334,27.6733327 131.718,27.804 C131.596666,27.9346673 131.433334,28 131.228,28 L128.848,28 C128.661332,28 128.502667,27.9346673 128.372,27.804 C128.241333,27.6733327 128.176,27.5146676 128.176,27.328 L128.176,18.396 L121.54,27.552 C121.334666,27.8506682 121.073335,28 120.756,28 L118.6,28 C118.413332,28 118.259334,27.9393339 118.138,27.818 C118.016666,27.6966661 117.956,27.5426676 117.956,27.356 L117.956,14.112 C117.956,13.9066656 118.021333,13.7433339 118.152,13.622 C118.282667,13.5006661 118.441332,13.44 118.628,13.44 L121.008,13.44 C121.194668,13.44 121.353333,13.5053327 121.484,13.636 C121.614667,13.7666673 121.68,13.9253324 121.68,14.112 L121.68,23.044 L128.316,13.888 C128.540001,13.5893318 128.801332,13.44 129.1,13.44 L131.256,13.44 C131.424001,13.44 131.573333,13.5006661 131.704,13.622 Z M136.758,26.488 C135.535327,25.2933274 134.886667,23.5946777 134.812,21.392 L134.784,20.692 C134.784,18.358655 135.395327,16.5200067 136.618,15.176 C137.840673,13.8319933 139.534656,13.16 141.7,13.16 C143.921344,13.16 145.633994,13.8319933 146.838,15.176 C148.042006,16.5200067 148.644,18.3119888 148.644,20.552 L148.644,21.14 C148.644,21.3266676 148.578667,21.4853327 148.448,21.616 C148.317333,21.7466673 148.149334,21.812 147.944,21.812 L138.648,21.812 L138.648,22.036 C138.685334,23.0813386 138.969997,23.9446633 139.502,24.626 C140.034003,25.3073367 140.766662,25.648 141.7,25.648 C142.764005,25.648 143.631997,25.218671 144.304,24.36 C144.472001,24.1546656 144.602666,24.0286669 144.696,23.982 C144.789334,23.9353331 144.947999,23.912 145.172,23.912 L147.636,23.912 C147.804001,23.912 147.948666,23.9586662 148.07,24.052 C148.191334,24.1453338 148.252,24.2759992 148.252,24.444 C148.252,24.8920022 147.986003,25.4193303 147.454,26.026 C146.921997,26.6326697 146.161338,27.1599978 145.172,27.608 C144.182662,28.0560022 143.034673,28.28 141.728,28.28 C139.637323,28.28 137.980673,27.6826726 136.758,26.488 Z M144.78,19.432 L144.78,19.376 C144.78,18.2746612 144.504669,17.39267 143.954,16.73 C143.403331,16.06733 142.652005,15.736 141.7,15.736 C140.747995,15.736 140.001336,16.06733 139.46,16.73 C138.918664,17.39267 138.648,18.2746612 138.648,19.376 L138.648,19.432 L144.78,19.432 Z" id="Состояние" fill="#030303"></path>
                <g id="Group" transform="translate(233.000000, 0.000000)">
                    <rect id="Rectangle-2" fill="#518BF6" x="0" y="0" width="95" height="38" rx="19"></rect>
                    <path d="M18.44,28.804 C18.3093327,28.6733327 18.244,28.5146676 18.244,28.328 L18.244,10.1 C18.244,9.89466564 18.3046661,9.72666732 18.426,9.596 C18.5473339,9.46533268 18.7106656,9.4 18.916,9.4 L25.748,9.4 C31.2546942,9.4 34.0639994,11.9386413 34.176,17.016 C34.2133335,18.0986721 34.232,18.8266648 34.232,19.2 C34.232,19.5546684 34.2133335,20.2733279 34.176,21.356 C34.101333,23.9693464 33.3966733,25.8966605 32.062,27.138 C30.7273267,28.3793395 28.6693472,29 25.888,29 L18.916,29 C18.7293324,29 18.5706673,28.9346673 18.44,28.804 Z M25.748,25.752 C27.2973411,25.752 28.4173299,25.4066701 29.108,24.716 C29.7986701,24.0253299 30.1626665,22.8773414 30.2,21.272 C30.2373335,20.1519944 30.256,19.4520014 30.256,19.172 C30.256,18.8733318 30.2373335,18.1826721 30.2,17.1 C30.1626665,15.5693257 29.7800036,14.4446703 29.052,13.726 C28.3239964,13.0073297 27.1760078,12.648 25.608,12.648 L22.192,12.648 L22.192,25.752 L25.748,25.752 Z M39.524,27.348 C38.1053262,26.0599936 37.358667,24.1466794 37.284,21.608 C37.2653332,21.066664 37.256,20.2733386 37.256,19.228 C37.256,18.1639947 37.2653332,17.361336 37.284,16.82 C37.358667,14.3373209 38.1239927,12.43334 39.58,11.108 C41.0360073,9.78266004 43.0053209,9.12 45.488,9.12 C47.9520123,9.12 49.9166593,9.78266004 51.382,11.108 C52.8473407,12.43334 53.617333,14.3373209 53.692,16.82 C53.7293335,17.9026721 53.748,18.7053307 53.748,19.228 C53.748,19.7320025 53.7293335,20.5253279 53.692,21.608 C53.617333,24.1466794 52.8660071,26.0599936 51.438,27.348 C50.0099929,28.6360064 48.0266794,29.28 45.488,29.28 C42.9306539,29.28 40.9426738,28.6360064 39.524,27.348 Z M48.456,24.912 C49.1840036,24.1653296 49.5759997,23.0173411 49.632,21.468 C49.6693335,20.3479944 49.688,19.592002 49.688,19.2 C49.688,18.7706645 49.6693335,18.0146721 49.632,16.932 C49.5759997,15.4013257 49.1746704,14.2580038 48.428,13.502 C47.6813296,12.7459962 46.7013394,12.368 45.488,12.368 C44.2559938,12.368 43.2666704,12.7459962 42.52,13.502 C41.7733296,14.2580038 41.3813335,15.4013257 41.344,16.932 C41.3253332,17.473336 41.316,18.2293285 41.316,19.2 C41.316,20.1520048 41.3253332,20.9079972 41.344,21.468 C41.3813335,22.9986743 41.768663,24.1419962 42.506,24.898 C43.243337,25.6540038 44.2373271,26.032 45.488,26.032 C46.7386729,26.032 47.7279964,25.6586704 48.456,24.912 Z M57.584,28.804 C57.4533327,28.6733327 57.388,28.5146676 57.388,28.328 L57.388,10.1 C57.388,9.89466564 57.4486661,9.72666732 57.57,9.596 C57.6913339,9.46533268 57.8546656,9.4 58.06,9.4 L60.328,9.4 C60.6826684,9.4 60.9626656,9.57733156 61.168,9.932 L66.572,19.956 L71.976,9.932 C72.1813344,9.57733156 72.4613316,9.4 72.816,9.4 L75.056,9.4 C75.2613344,9.4 75.4293327,9.46533268 75.56,9.596 C75.6906673,9.72666732 75.756,9.89466564 75.756,10.1 L75.756,28.328 C75.756,28.5333344 75.6906673,28.6966661 75.56,28.818 C75.4293327,28.9393339 75.2613344,29 75.056,29 L72.648,29 C72.4613324,29 72.3026673,28.9346673 72.172,28.804 C72.0413327,28.6733327 71.976,28.5146676 71.976,28.328 L71.976,16.288 L68.084,23.68 C67.8786656,24.0906687 67.5706687,24.296 67.16,24.296 L65.984,24.296 C65.591998,24.296 65.2746679,24.0906687 65.032,23.68 L61.14,16.288 L61.14,28.328 C61.14,28.5146676 61.0793339,28.6733327 60.958,28.804 C60.8366661,28.9346673 60.6733344,29 60.468,29 L58.06,29 C57.8733324,29 57.7146673,28.9346673 57.584,28.804 Z" id="DOM" fill="#FFFFFF"></path>
                </g>
                <path d="M170.5,20 L208.5,20" id="Line" stroke="#000000" stroke-width="2" fill="#000000"></path>
                <path id="Line-decoration-1" d="M170.5,17 L170.5,23" stroke="#000000" stroke-width="2" fill="#000000"></path>
                <path id="Line-decoration-2" d="M208.5,20 L197.7,17 L197.7,23 L208.5,20 Z" stroke="#000000" stroke-width="2" fill="#000000"></path>
            </g>
        </g>
    </g>
</svg>