<?xml version="1.0" encoding="UTF-8"?>
<svg width="74px" height="92px" viewBox="0 0 74 92" version="1.1" xmlns="http://www.w3.org/2000/svg" xmlns:xlink="http://www.w3.org/1999/xlink">
    <!-- Generator: Sketch 41.2 (35397) - http://www.bohemiancoding.com/sketch -->
    <title>Avram</title>
    <desc>Created with Sketch.</desc>
    <defs></defs>
    <g id="Page-1" stroke="none" stroke-width="1" fill="none" fill-rule="evenodd">
        <g id="Avram" transform="translate(-0.147208, 0.000000)">
            <g id="tikhon" transform="translate(0.779188, 2.000000)">
                <path d="M13.65,75 L13.65,89" id="Path-11" stroke="#222222" stroke-width="1.30000007"></path>
                <path d="M58.65,74 L58.65,89" id="Path-12" stroke="#222222" stroke-width="1.30000007"></path>
                <path d="M25,46 C25,46 21.0003667,54.002644 22,61 C22,61.0000001 28,59 28,59 L28,62 L34,64" id="Path-13" stroke="#222222" stroke-width="1.30000007"></path>
                <path d="M36,66 C36,66 45,58 45,54 L45,47" id="Path-14" stroke="#222222" stroke-width="1.30000007"></path>
                <path d="M28,48 L28,54 C28,58 37,64 37,64" id="Path-2" stroke="#222222" stroke-width="1.30000007"></path>
                <path d="M41,64 L46,62 L46,59 L52,62 C52,62 53,50 47,45" id="Path-15" stroke="#222222" stroke-width="1.30000007"></path>
                <path d="M22.5999756,52 C22.5999756,52 10,61 8,65 C6,69 5,70 0,84 C0,85 14,87 14,87" id="Path-16" stroke="#222222" stroke-width="1.30000007"></path>
                <path d="M51.5,53 C51.5,53 62.0012003,60.0018004 66,66 C68,69 72,84 72,84 C72,84 69,85 59,87" id="Path-17" stroke="#222222" stroke-width="1.30000007"></path>
                <path d="M72.0977782,87 C72.0977782,87 60.397766,85 59.397766,84 C58.397766,83 65.397766,66 65.397766,66" id="Path-18-Copy" stroke="#222222" stroke-width="1.30000007" fill="#FFFFFF" transform="translate(65.698883, 76.500000) scale(-1, 1) translate(-65.698883, -76.500000) "></path>
                <path d="M22,35 C22,41 27,51 36,51 C45,51 50,41 50,35" id="Path-19" stroke="#222222" stroke-width="1.30000007"></path>
                <path d="M34,36 C34,36 34,37.3 36,37.3 C38,37.3 38,36 38,36" id="Path-21" fill="#222222"></path>
                <rect id="Rectangle" fill="#222222" x="32" y="42" width="8" height="1.29999995"></rect>
                <path d="M22,38.16 C22,38.16 16.5,38.16 16.5,30.16 C16.5,22.16 22,28.16 22,28.16" id="Path-22" stroke="#222222" stroke-width="1.30000007"></path>
                <path d="M55.5,38.16 C55.5,38.16 50,38.16 50,30.16 C50,22.16 55.5,28.16 55.5,28.16" id="Path-22-Copy" stroke="#222222" stroke-width="1.30000007" transform="translate(52.750000, 32.080000) scale(-1, 1) translate(-52.750000, -32.080000) "></path>
                <path d="M52,31.6 C52,32.4 51,34 51,34 C51,34 53,32.4 53,31.6 C53,30.8 52,30 52,30 L52,31.6 Z" id="Path-23" fill="#222222"></path>
                <path d="M20,31.6 C20,32.4 19,34 19,34 C19,34 21,32.4 21,31.6 C21,30.8 20,30 20,30 L20,31.6 Z" id="Path-23-Copy" fill="#222222" transform="translate(20.000000, 32.000000) scale(-1, 1) translate(-20.000000, -32.000000) "></path>
                <path d="M22,28.0000006 C22,28.0000006 22,16.0079962 24,13.9999997 C26,11.9920031 26,9 26,9 C26,9 29.0000001,12 37,12 C44.9999999,12 50,12.0000003 50,16.9999997 L50,28 C50,28 51,27.0000006 52,26 L52,12 C52,1 32,-4.00000015 24.9999999,6.9999999 C24.9999999,6.99999981 20,7.99999981 20,14.0000003 L20,26 L22,28.0000006 Z" id="Path-24" fill="#222222"></path>
                <path d="M2,85 L1,89" id="Path-20" stroke="#2F2F2F" stroke-width="1.30000007"></path>
                <path d="M71,84 L72,89" id="Path-18" stroke="#222222" stroke-width="1.30000007"></path>
                <path d="M26,23 C26,23 27,24.5 29.5,24.5 C32,24.5 33,23 33,23" id="Path-21-Copy" fill="#222222" transform="translate(29.500000, 23.750000) rotate(180.000000) translate(-29.500000, -23.750000) "></path>
                <path d="M39,23 C39,23 40,24.5 42.5,24.5 C45,24.5 46,23 46,23" id="Path-21-Copy-2" fill="#222222" transform="translate(42.500000, 23.750000) rotate(180.000000) translate(-42.500000, -23.750000) "></path>
                <path d="M29.3499999,30.4281154 C30.647869,30.4281154 31.6999998,29.3759846 31.6999998,28.0781155 C31.6999998,26.7802463 30.647869,26.9031155 29.3499999,26.9031155 C28.0521308,26.9031155 27,26.7802463 27,28.0781155 C27,29.3759846 28.0521308,30.4281154 29.3499999,30.4281154 Z" id="Oval-4" fill="#222222"></path>
                <path d="M42.6499877,30.4281154 C43.9478568,30.4281154 44.9999876,29.3759846 44.9999876,28.0781155 C44.9999876,26.7802463 43.9478568,26.9031155 42.6499877,26.9031155 C41.3521186,26.9031155 40.2999878,26.7802463 40.2999878,28.0781155 C40.2999878,29.3759846 41.3521186,30.4281154 42.6499877,30.4281154 Z" id="Oval-4-Copy" fill="#222222"></path>
            </g>
            <path d="M20.678364,17.7996139 C20.0501404,17.1713904 19.7360286,14.1873286 19.7360286,9.63270787 L19.7360286,2.3296092 L16.8304948,2.09402537 C15.181408,1.93696949 13.9249609,1.54432978 14.0034888,1.07316212 C14.1605447,0.601994463 22.5630346,0.209354749 36.6195363,0.0522988638 C56.1729941,-0.104757022 59,0.0522988638 59,1.07316212 C59,1.85844155 58.2147206,2.25108126 56.251522,2.25108126 C53.1889322,2.25108126 53.2674602,2.09402537 53.503044,9.08301228 C53.581572,11.7529623 53.4245161,15.0511359 53.1104043,16.3861109 L52.5607087,18.7419492 L37.090704,18.7419492 C26.096792,18.7419492 21.3851154,18.5063654 20.678364,17.7996139 Z" id="node16" fill="#211D21" transform="translate(36.500000, 9.370975) scale(1, -1) translate(-36.500000, -9.370975) "></path>
            <path d="M51.489749,69.3331995 C51.489749,69.3331995 52.8670673,69.6226731 52.9404394,70.9159596 C52.9404394,70.9159596 53.9514511,66.8277511 52.2810598,64.2343946 C52.2810598,64.2343946 53.8195198,64.9815438 53.8195198,66.4320957 C53.8195198,66.4320957 54.3032217,61.1573363 52.0614974,59.0474048 C52.0614974,59.0474048 52.6768537,58.7399343 53.1162554,59.486945 C53.1162554,59.486945 53.7318886,55.4430366 52.0614974,53.5528061 C52.0614974,53.5528061 53.8195198,53.7286222 54.4787609,52.4977711 C54.4787609,52.4977711 51.7538884,51.2231737 51.665842,48.3659547 C51.577657,45.5088741 52.3252215,39.9265058 49.3362096,38.4758154 C49.656278,41.705017 48.7493715,45.9409387 44.6402589,43.9978248 C41.846306,42.6767123 39.7272376,38.739678 36.724382,42.3104057 C36.723136,42.3119286 36.7220285,42.3133129 36.7206441,42.3146973 C36.7206441,42.3146973 34.3908734,39.3987806 31.313815,42.0364372 C29.913516,43.2368319 28.4678094,45.3156148 26.501438,44.968828 C24.2156905,44.5655585 23.6696916,40.4888404 23.6299599,38.554725 C23.6194386,38.0303224 20.9549251,41.611433 20.4860361,46.3000465 C20.017147,50.9887984 19.3138827,51.6922012 16.8524575,52.6298409 C16.8524575,52.6298409 18.7281521,54.9741476 20.6035698,53.3329668 C20.6035698,53.3329668 21.1895773,55.3259182 18.4936383,56.8495653 C18.4936383,56.8495653 20.2513839,57.9046003 21.8925647,55.5601551 C21.8925647,55.5601551 22.1274938,58.4903309 19.1969027,60.8349145 C19.1969027,60.8349145 20.3691945,61.8900879 22.3615922,59.7798795 C22.3615922,59.7798795 21.0717666,63.6483872 19.0793689,65.1723112 C19.0793689,65.1723112 20.2513839,65.9925555 21.8925647,64.5861652 C21.8925647,64.5861652 22.1274938,67.9855069 18.8452705,70.5639121 C18.8452705,70.5639121 20.3685023,72.4397452 22.9474612,69.7436678 C22.9474612,69.7436678 22.7136397,73.3776617 20.1346808,73.9633923 C20.1346808,73.9633923 22.4784338,75.2526641 24.7057605,73.1425942 C24.7057605,73.1425942 24.9398589,75.3700594 23.2992318,76.5419359 C23.2992318,76.5419359 26.2295461,76.8941218 27.1671857,75.0184272 C27.1671857,75.0184272 27.2847195,77.5971093 25.9954476,78.3002352 C25.9954476,78.3002352 27.7531932,80.4098897 29.6290262,77.7142277 C29.6290262,77.7142277 29.8632631,79.707456 28.4568728,80.2930482 C28.4568728,80.2930482 30.8011796,81.8171106 33.4971185,79.5897839 C33.4971185,79.5897839 34.2003829,83.2229471 36.661808,82.6372165 C36.661808,82.6372165 35.6069115,80.1755144 36.661808,78.6518673 C36.661808,78.6518673 38.3034042,79.5897839 37.4826061,81.1132925 C37.4826061,81.1132925 39.3574701,81.1132925 39.826636,78.7688473 C39.826636,78.7688473 41.46754,81.1132925 44.0466374,80.0585345 C44.0466374,80.0585345 42.5227134,78.6522827 43.2261161,77.1282202 C43.2261161,77.1282202 45.2041163,78.608121 48.1053586,77.8166717 C48.1053586,77.8166717 46.9186692,75.3552465 47.7977497,74.0803723 C47.7977497,74.0803723 49.3362096,75.2672 49.2920479,76.3220966 C49.2920479,76.3220966 50.4788757,75.3552465 50.2591748,73.4211312 C50.2591748,73.4211312 51.7095883,74.7398902 54.4787609,73.1135222 C54.4787609,73.1135222 51.3580946,71.7949016 51.489749,69.3331995 L51.489749,69.3331995 Z" id="Path" fill="#181615"></path>
        </g>
    </g>
</svg>