<?xml version="1.0" encoding="UTF-8"?>
<svg width="73px" height="97px" viewBox="0 0 73 97" version="1.1" xmlns="http://www.w3.org/2000/svg" xmlns:xlink="http://www.w3.org/1999/xlink">
    <!-- Generator: Sketch 41.2 (35397) - http://www.bohemiancoding.com/sketch -->
    <title>pier</title>
    <desc>Created with Sketch.</desc>
    <defs></defs>
    <g id="Page-1" stroke="none" stroke-width="1" fill="none" fill-rule="evenodd">
        <g id="pier" transform="translate(0.926396, 0.000000)">
            <g id="alex" transform="translate(0.000000, 8.000000)">
                <path d="M12.65,74 L12.65,88" id="Path-11" stroke="#222222" stroke-width="1.30000007"></path>
                <path d="M57.65,73 L57.65,88" id="Path-12" stroke="#222222" stroke-width="1.30000007"></path>
                <path d="M45,53 C45,53 45,55 45,51 L45,46" id="Path-14" stroke="#222222" stroke-width="1.30000007"></path>
                <path d="M26,47 L26,53 C26,53 26,59 35.5,59 C44,59 45,53 45,53" id="Path-2" stroke="#222222" stroke-width="1.30000007"></path>
                <path d="M26,50 C26,50 7,60 5,64 C3,68 1,70 4.22772928e-13,84 L13,85" id="Path-16" stroke="#222222" stroke-width="1.30000007"></path>
                <path d="M45,50 C45,50 63.0012003,59.0018004 67,65 C69,68 71,83 71,83 L58,84" id="Path-17" stroke="#222222" stroke-width="1.30000007"></path>
                <path d="M21,34 C21,43 26,50 35,50 C44,50 49,43 49,34" id="Path-19" stroke="#222222" stroke-width="1.30000007"></path>
                <path d="M33,35 C33,35 33,36.3 35,36.3 C37,36.3 37,35 37,35" id="Path-21" fill="#222222"></path>
                <circle id="Oval-4" fill="#222222" cx="27.5" cy="27.5" r="1.5"></circle>
                <circle id="Oval-4-Copy" fill="#222222" cx="42.5" cy="27.5" r="1.5"></circle>
                <path d="M21,37.16 C21,37.16 16,37.16 16,29.16 C16,21.16 21,27.16 21,27.16" id="Path-22" stroke="#222222" stroke-width="1.30000007"></path>
                <path d="M54,37.16 C54,37.16 49,37.16 49,29.16 C49,21.16 54,27.16 54,27.16" id="Path-22-Copy" stroke="#222222" stroke-width="1.30000007" transform="translate(51.500000, 31.080000) scale(-1, 1) translate(-51.500000, -31.080000) "></path>
                <path d="M51,30.6 C51,31.4 50,33 50,33 C50,33 52,31.4 52,30.6 C52,29.8 51,29 51,29 L51,30.6 Z" id="Path-23" fill="#222222"></path>
                <path d="M19,30.6 C19,31.4 18,33 18,33 C18,33 20,31.4 20,30.6 C20,29.8 19,29 19,29 L19,30.6 Z" id="Path-23-Copy" fill="#222222" transform="translate(19.000000, 31.000000) scale(-1, 1) translate(-19.000000, -31.000000) "></path>
                <path d="M21,27.0000006 C21,27.0000006 21,18.9999996 22,14.9999997 C23,10.9999997 24,9 24,9 C24,9 30.0000001,13 38,13 C45.9999999,13 49.0000001,13.9999997 49,16.9999997 C48.9999999,19.9999997 49,27 49,27 C49,27 50,26.0000006 51,25 C51,25 52,16.0000003 52,14 C52,-2.00000007 29,-3.00000011 22.9999999,4.9999999 C22.9999999,4.99999981 18,6.99999988 18,14.0000003 C18,21.0000007 19,25 19,25 L21,27.0000006 Z" id="Path-24" fill="#222222"></path>
                <path d="M0.650000036,84 L0.650000036,89" id="Path-26" stroke="#222222" stroke-width="1.30000007"></path>
                <path d="M69.65,83 L69.65,88" id="Path-27" stroke="#222222" stroke-width="1.30000007"></path>
                <g id="glasses" transform="translate(19.000000, 23.000000)">
                    <path d="M14.4,1.71875 C14.4,1.71875 13.12,2.37194171e-10 8,-1.77635684e-14 C2.88,-2.37229698e-10 0.16,1.5625 0.16,1.5625 L0,3.59375 L1.44,4.53125 C1.44,4.53125 1.55351992,8.66052732 5.12,9.53125 C5.76,9.6875 9.59027908,10.2391215 11.04,9.53125 C11.36,9.375 14.56,7.65625 14.72,4.21875 C14.72,4.21875 15.2,3.59375 16,3.59375 L16,1.5625 C14.88,1.5625 14.4,1.71875 14.4,1.71875 Z M17.6,1.71875 C17.6,1.71875 18.88,2.37194171e-10 24,-1.77635684e-14 C29.12,-2.37229698e-10 31.84,1.5625 31.84,1.5625 L32,3.59375 L30.56,4.53125 C30.56,4.53125 30.4464801,8.66052732 26.88,9.53125 C26.24,9.6875 22.4097209,10.2391215 20.96,9.53125 C20.64,9.375 17.44,7.65625 17.28,4.21875 C17.28,4.21875 16.8,3.59375 16,3.59375 L16,1.5625 C17.12,1.5625 17.6,1.71875 17.6,1.71875 Z M23.8712578,0.9375 C21.4712578,0.9375 19.0712578,1.71875 18.5912578,2.96875 C18.1112578,4.21875 18.5912578,5.625 19.0712578,6.5625 C19.5512578,7.5 20.6712578,8.75 23.5512578,8.75 C26.4312578,8.75 28.8312578,7.5 28.6712578,4.53125 C28.5112578,1.5625 26.2712578,0.9375 23.8712578,0.9375 Z M8,0.9375 C10.4,0.9375 12.8,1.71875 13.28,2.96875 C13.76,4.21875 13.28,5.625 12.8,6.5625 C12.32,7.5 11.2,8.75 8.32,8.75 C5.44,8.75 3.04,7.5 3.2,4.53125 C3.36,1.5625 5.6,0.9375 8,0.9375 Z" id="Combined-Shape" fill="#222222"></path>
                    <ellipse id="Oval" fill="#FFFFFF" cx="1.84" cy="2.578125" rx="0.4" ry="0.390625"></ellipse>
                    <ellipse id="Oval-Copy" fill="#FFFFFF" cx="30.032002" cy="2.578125" rx="0.4" ry="0.390625"></ellipse>
                </g>
                <rect id="Rectangle-15" fill="#222222" x="31" y="41" width="8" height="1"></rect>
                <rect id="Rectangle-15-Copy-2" fill="#222222" x="33" y="44" width="4" height="1"></rect>
            </g>
            <path d="M22.6581247,68.106887 C22.6581247,64.7615805 22.9926554,61.8623149 23.327186,61.416274 C23.6617167,61.0817434 26.6724925,61.9738251 30.0177989,63.4234579 L36.0393506,66.0997031 L41.0573103,63.8694988 C43.8450657,62.6428864 46.7443313,61.7508047 47.4133926,61.9738251 C48.6400049,62.419866 49.197556,72.4557854 47.9709437,73.5708875 C47.636413,73.9054182 44.8486576,72.9018262 41.8378818,71.3406832 L36.1508608,68.4414176 L30.6868602,71.229173 C27.5645742,72.790316 24.5537984,74.0169284 23.8847371,74.0169284 C23.1041656,74.0169284 22.6581247,71.6752139 22.6581247,68.106887 Z" id="node10" fill="#211D21" transform="translate(35.658125, 67.681488) scale(1, -1) translate(-35.658125, -67.681488) "></path>
            <path d="M35,20.3490469 C33.775072,19.0475608 32.3970279,18.4350968 30.7127518,18.4350968 C24.3584376,18.4350968 13.5637592,11.9276666 13.5637592,8.17632445 C13.5637592,7.33418642 14.2527813,5.72646837 15.0949193,4.65465633 C15.9370573,3.58284429 16.6260793,2.28135824 16.6260793,1.82201023 C16.6260793,0.520524179 52.6083406,0.367408173 52.6083406,1.66889422 C52.6083406,2.12824224 53.4504787,3.50628629 54.5222907,4.80777233 C55.5941027,6.03270038 56.4362408,7.64041844 56.4362408,8.25288246 C56.4362408,11.6214346 45.2587724,18.4350968 39.6700382,18.4350968 C37.0670661,18.4350968 36.301486,19.1241188 37.3732981,20.4256049 C38.9044581,22.262997 36.7608341,22.186439 35,20.3490469 Z" id="node15" fill="#211D21" transform="translate(35.000000, 11.265968) scale(1, -1) translate(-35.000000, -11.265968) "></path>
        </g>
    </g>
</svg>