<?xml version="1.0" encoding="UTF-8"?>
<svg width="74px" height="90px" viewBox="0 0 74 90" version="1.1" xmlns="http://www.w3.org/2000/svg" xmlns:xlink="http://www.w3.org/1999/xlink">
    <!-- Generator: Sketch 41.2 (35397) - http://www.bohemiancoding.com/sketch -->
    <title>me</title>
    <desc>Created with Sketch.</desc>
    <defs></defs>
    <g id="Page-1" stroke="none" stroke-width="1" fill="none" fill-rule="evenodd">
        <g id="these-guys" transform="translate(-89.000000, 0.000000)">
            <g id="Page-1">
                <g id="Avatars">
                    <g id="these-guys">
                        <g id="me" transform="translate(90.000000, 0.000000)">
                            <path d="M13.65,75 L13.65,89" id="Path-11" stroke="#222222" stroke-width="1.30000007"></path>
                            <path d="M58.65,74 L58.65,89" id="Path-12" stroke="#222222" stroke-width="1.30000007"></path>
                            <path d="M25,46 C25,46 21.0003667,54.002644 22,61 C22,61.0000001 28,59 28,59 L28,62 L34,64" id="Path-13" stroke="#222222" stroke-width="1.30000007"></path>
                            <path d="M36,66 C36,66 45,58 45,54 L45,47" id="Path-14" stroke="#222222" stroke-width="1.30000007"></path>
                            <path d="M28,48 L28,54 C28,58 37,64 37,64" id="Path-2" stroke="#222222" stroke-width="1.30000007"></path>
                            <path d="M41,64 L46,62 L46,59 L52,62 C52,62 53,50 47,45" id="Path-15" stroke="#222222" stroke-width="1.30000007"></path>
                            <path d="M22.5999756,52 C22.5999756,52 10,61 8,65 C6,69 5,70 0,84 C0,85 14,87 14,87" id="Path-16" stroke="#222222" stroke-width="1.30000007"></path>
                            <path d="M51.5,53 C51.5,53 62.0012003,60.0018004 66,66 C68,69 72,84 72,84 C72,84 69,85 59,87" id="Path-17" stroke="#222222" stroke-width="1.30000007"></path>
                            <path d="M72.0977782,87 C72.0977782,87 60.397766,85 59.397766,84 C58.397766,83 65.397766,66 65.397766,66" id="Path-18-Copy" stroke="#222222" stroke-width="1.30000007" fill="#FFFFFF" transform="translate(65.698883, 76.500000) scale(-1, 1) translate(-65.698883, -76.500000) "></path>
                            <path d="M22,35 C22,41 27,51 36,51 C45,51 50,41 50,35" id="Path-19" stroke="#222222" stroke-width="1.30000007"></path>
                            <path d="M34,36 C34,36 34,37.3 36,37.3 C38,37.3 38,36 38,36" id="Path-21" fill="#222222"></path>
                            <rect id="Rectangle" fill="#222222" x="32" y="42" width="8" height="1.29999995"></rect>
                            <path d="M22,38.16 C22,38.16 16.5,38.16 16.5,30.16 C16.5,22.16 22,28.16 22,28.16" id="Path-22" stroke="#222222" stroke-width="1.30000007"></path>
                            <path d="M55.5,38.16 C55.5,38.16 50,38.16 50,30.16 C50,22.16 55.5,28.16 55.5,28.16" id="Path-22-Copy" stroke="#222222" stroke-width="1.30000007" transform="translate(52.750000, 32.080000) scale(-1, 1) translate(-52.750000, -32.080000) "></path>
                            <path d="M52,31.6 C52,32.4 51,34 51,34 C51,34 53,32.4 53,31.6 C53,30.8 52,30 52,30 L52,31.6 Z" id="Path-23" fill="#222222"></path>
                            <path d="M20,31.6 C20,32.4 19,34 19,34 C19,34 21,32.4 21,31.6 C21,30.8 20,30 20,30 L20,31.6 Z" id="Path-23-Copy" fill="#222222" transform="translate(20.000000, 32.000000) scale(-1, 1) translate(-20.000000, -32.000000) "></path>
                            <path d="M22,28.0000006 C22,28.0000006 22,16.0079962 24,13.9999997 C26,11.9920031 26,9 26,9 C26,9 29.0000001,12 37,12 C44.9999999,12 50,12.0000003 50,16.9999997 L50,28 C50,28 51,27.0000006 52,26 L52,12 C52,1 32,-4.00000015 24.9999999,6.9999999 C24.9999999,6.99999981 20,7.99999981 20,14.0000003 L20,26 L22,28.0000006 Z" id="Path-24" fill="#222222"></path>
                            <path d="M2,85 L1,89" id="Path-20" stroke="#2F2F2F" stroke-width="1.30000007"></path>
                            <path d="M71,84 L72,89" id="Path-18" stroke="#222222" stroke-width="1.30000007"></path>
                            <path d="M26,23 C26,23 27,24.5 29.5,24.5 C32,24.5 33,23 33,23" id="Path-21-Copy" fill="#222222" transform="translate(29.500000, 23.750000) rotate(180.000000) translate(-29.500000, -23.750000) "></path>
                            <path d="M39,23 C39,23 40,24.5 42.5,24.5 C45,24.5 46,23 46,23" id="Path-21-Copy-2" fill="#222222" transform="translate(42.500000, 23.750000) rotate(180.000000) translate(-42.500000, -23.750000) "></path>
                            <path d="M29.3499999,30.4281154 C30.647869,30.4281154 31.6999998,29.3759846 31.6999998,28.0781155 C31.6999998,26.7802463 30.647869,26.9031155 29.3499999,26.9031155 C28.0521308,26.9031155 27,26.7802463 27,28.0781155 C27,29.3759846 28.0521308,30.4281154 29.3499999,30.4281154 Z" id="Oval-4" fill="#222222"></path>
                            <path d="M42.6499877,30.4281154 C43.9478568,30.4281154 44.9999876,29.3759846 44.9999876,28.0781155 C44.9999876,26.7802463 43.9478568,26.9031155 42.6499877,26.9031155 C41.3521186,26.9031155 40.2999878,26.7802463 40.2999878,28.0781155 C40.2999878,29.3759846 41.3521186,30.4281154 42.6499877,30.4281154 Z" id="Oval-4-Copy" fill="#222222"></path>
                        </g>
                    </g>
                </g>
            </g>
        </g>
    </g>
</svg>